<?xml version="1.0" encoding="UTF-8" standalone="no"?><svg xmlns="http://www.w3.org/2000/svg" xmlns:xlink="http://www.w3.org/1999/xlink" contentScriptType="application/ecmascript" contentStyleType="text/css" height="759px" preserveAspectRatio="none" style="width:1034px;height:759px;" version="1.1" viewBox="0 0 1034 759" width="1034px" zoomAndPan="magnify"><defs><filter height="300%" id="fmr0azz3u229w" width="300%" x="-1" y="-1"><feGaussianBlur result="blurOut" stdDeviation="2.0"/><feColorMatrix in="blurOut" result="blurOut2" type="matrix" values="0 0 0 0 0 0 0 0 0 0 0 0 0 0 0 0 0 0 .4 0"/><feOffset dx="4.0" dy="4.0" in="blurOut2" result="blurOut3"/><feBlend in="SourceGraphic" in2="blurOut3" mode="normal"/></filter></defs><g><!--MD5=[6259e7ae8c6cfb59601b834ef8d2ce47]
class Ile--><rect codeLine="1" fill="#FEFECE" filter="url(#fmr0azz3u229w)" height="94.4141" id="Ile" style="stroke:#A80036;stroke-width:1.5;" width="194" x="491.5" y="7"/><ellipse cx="577.25" cy="23" fill="#ADD1B2" rx="11" ry="11" style="stroke:#A80036;stroke-width:1.0;"/><path d="M579.5938,18.6719 C578.6563,18.2344 578.0625,18.0938 577.1875,18.0938 C574.5625,18.0938 572.5625,20.1719 572.5625,22.8906 L572.5625,24.0156 C572.5625,26.5938 574.6719,28.4844 577.5625,28.4844 C578.7813,28.4844 579.9375,28.1875 580.6875,27.6406 C581.2656,27.2344 581.5938,26.7813 581.5938,26.3906 C581.5938,25.9375 581.2031,25.5469 580.7344,25.5469 C580.5156,25.5469 580.3125,25.625 580.125,25.8125 C579.6719,26.2969 579.6719,26.2969 579.4844,26.3906 C579.0625,26.6563 578.375,26.7813 577.6094,26.7813 C575.5625,26.7813 574.2656,25.6875 574.2656,23.9844 L574.2656,22.8906 C574.2656,21.1094 575.5156,19.7969 577.25,19.7969 C577.8281,19.7969 578.4375,19.9531 578.9063,20.2031 C579.3906,20.4844 579.5625,20.7031 579.6563,21.1094 C579.7188,21.5156 579.75,21.6406 579.8906,21.7656 C580.0313,21.9063 580.2656,22.0156 580.4844,22.0156 C580.75,22.0156 581.0156,21.875 581.1875,21.6563 C581.2969,21.5 581.3281,21.3125 581.3281,20.8906 L581.3281,19.4688 C581.3281,19.0313 581.3125,18.9063 581.2188,18.75 C581.0625,18.4844 580.7813,18.3438 580.4844,18.3438 C580.1875,18.3438 579.9844,18.4375 579.7656,18.75 L579.5938,18.6719 Z " fill="#000000"/><text fill="#000000" font-family="sans-serif" font-size="12" lengthAdjust="spacingAndGlyphs" textLength="14" x="597.75" y="27.1543">Ile</text><line style="stroke:#A80036;stroke-width:1.5;" x1="492.5" x2="684.5" y1="39" y2="39"/><line style="stroke:#A80036;stroke-width:1.0;" x1="492.5" x2="684.5" y1="47" y2="47"/><ellipse cx="502.5" cy="58" fill="#84BE84" rx="3" ry="3" style="stroke:#038048;stroke-width:1.0;"/><text fill="#000000" font-family="sans-serif" font-size="11" lengthAdjust="spacingAndGlyphs" textLength="22" x="511.5" y="61.2104">Ile()</text><line style="stroke:#A80036;stroke-width:1.0;" x1="492.5" x2="684.5" y1="67.8047" y2="67.8047"/><ellipse cx="502.5" cy="78.8047" fill="#84BE84" rx="3" ry="3" style="stroke:#038048;stroke-width:1.0;"/><text fill="#000000" font-family="sans-serif" font-size="11" lengthAdjust="spacingAndGlyphs" textLength="168" x="511.5" y="82.0151">ileTotalementIndependante()</text><ellipse cx="502.5" cy="91.6094" fill="#84BE84" rx="3" ry="3" style="stroke:#038048;stroke-width:1.0;"/><text fill="#000000" font-family="sans-serif" font-size="11" lengthAdjust="spacingAndGlyphs" textLength="103" x="511.5" y="94.8198">collisionEntreIles()</text><!--MD5=[96cdea1afac70625266c09042de03e1a]
class Terrain--><rect codeLine="10" fill="#FEFECE" filter="url(#fmr0azz3u229w)" height="120.0234" id="Terrain" style="stroke:#A80036;stroke-width:1.5;" width="93" x="542" y="163.5"/><ellipse cx="565.55" cy="179.5" fill="#ADD1B2" rx="11" ry="11" style="stroke:#A80036;stroke-width:1.0;"/><path d="M567.8938,175.1719 C566.9563,174.7344 566.3625,174.5938 565.4875,174.5938 C562.8625,174.5938 560.8625,176.6719 560.8625,179.3906 L560.8625,180.5156 C560.8625,183.0938 562.9719,184.9844 565.8625,184.9844 C567.0813,184.9844 568.2375,184.6875 568.9875,184.1406 C569.5656,183.7344 569.8938,183.2813 569.8938,182.8906 C569.8938,182.4375 569.5031,182.0469 569.0344,182.0469 C568.8156,182.0469 568.6125,182.125 568.425,182.3125 C567.9719,182.7969 567.9719,182.7969 567.7844,182.8906 C567.3625,183.1563 566.675,183.2813 565.9094,183.2813 C563.8625,183.2813 562.5656,182.1875 562.5656,180.4844 L562.5656,179.3906 C562.5656,177.6094 563.8156,176.2969 565.55,176.2969 C566.1281,176.2969 566.7375,176.4531 567.2063,176.7031 C567.6906,176.9844 567.8625,177.2031 567.9563,177.6094 C568.0188,178.0156 568.05,178.1406 568.1906,178.2656 C568.3313,178.4063 568.5656,178.5156 568.7844,178.5156 C569.05,178.5156 569.3156,178.375 569.4875,178.1563 C569.5969,178 569.6281,177.8125 569.6281,177.3906 L569.6281,175.9688 C569.6281,175.5313 569.6125,175.4063 569.5188,175.25 C569.3625,174.9844 569.0813,174.8438 568.7844,174.8438 C568.4875,174.8438 568.2844,174.9375 568.0656,175.25 L567.8938,175.1719 Z " fill="#000000"/><text fill="#000000" font-family="sans-serif" font-size="12" lengthAdjust="spacingAndGlyphs" textLength="42" x="581.45" y="183.6543">Terrain</text><line style="stroke:#A80036;stroke-width:1.5;" x1="543" x2="634" y1="195.5" y2="195.5"/><rect fill="none" height="6" style="stroke:#C82930;stroke-width:1.0;" width="6" x="550" y="203.5"/><text fill="#000000" font-family="sans-serif" font-size="11" lengthAdjust="spacingAndGlyphs" textLength="54" x="562" y="209.7104">int height</text><rect fill="none" height="6" style="stroke:#C82930;stroke-width:1.0;" width="6" x="550" y="216.3047"/><text fill="#000000" font-family="sans-serif" font-size="11" lengthAdjust="spacingAndGlyphs" textLength="48" x="562" y="222.5151">int width</text><line style="stroke:#A80036;stroke-width:1.0;" x1="543" x2="634" y1="229.1094" y2="229.1094"/><ellipse cx="553" cy="240.1094" fill="#84BE84" rx="3" ry="3" style="stroke:#038048;stroke-width:1.0;"/><text fill="#000000" font-family="sans-serif" font-size="11" lengthAdjust="spacingAndGlyphs" textLength="48" x="562" y="243.3198">Terrain()</text><line style="stroke:#A80036;stroke-width:1.0;" x1="543" x2="634" y1="249.9141" y2="249.9141"/><ellipse cx="553" cy="260.9141" fill="#84BE84" rx="3" ry="3" style="stroke:#038048;stroke-width:1.0;"/><text fill="#000000" font-family="sans-serif" font-size="11" lengthAdjust="spacingAndGlyphs" textLength="50" x="562" y="264.1245">colorier()</text><ellipse cx="553" cy="273.7188" fill="#84BE84" rx="3" ry="3" style="stroke:#038048;stroke-width:1.0;"/><text fill="#000000" font-family="sans-serif" font-size="11" lengthAdjust="spacingAndGlyphs" textLength="67" x="562" y="276.9292">getBuilder()</text><!--MD5=[426e75666daf533f17226ff4c87e20fd]
class Shape--><rect codeLine="21" fill="#FEFECE" filter="url(#fmr0azz3u229w)" height="60.8047" id="Shape" style="stroke:#A80036;stroke-width:1.5;" width="127" x="731" y="193"/><ellipse cx="771.65" cy="209" fill="#A9DCDF" rx="11" ry="11" style="stroke:#A80036;stroke-width:1.0;"/><path d="M773.7281,210.8125 L774.1188,211.7969 L773.7281,211.7969 C773.275,211.7969 773.1656,211.8125 773.0094,211.9219 C772.7594,212.0781 772.6031,212.3594 772.6031,212.6563 C772.6031,212.9219 772.7438,213.1719 772.9625,213.3281 C773.1031,213.4531 773.3063,213.5 773.7281,213.5 L776.0875,213.5 C776.4469,213.5 776.6656,213.4688 776.8063,213.375 C777.0563,213.2344 777.2125,212.9375 777.2125,212.6563 C777.2125,212.375 777.0719,212.125 776.8531,211.9688 C776.6813,211.8281 776.525,211.7969 776.0563,211.7969 L772.6656,203.5938 L768.9938,203.5938 C768.5406,203.5938 768.4156,203.6094 768.2594,203.7031 C768.0094,203.875 767.8531,204.1563 767.8531,204.4375 C767.8531,204.7188 767.9938,204.9688 768.2125,205.1406 C768.3844,205.25 768.5563,205.2813 768.9938,205.2813 L770.0719,205.2813 L767.4313,211.7969 C767.0094,211.7969 766.8531,211.8125 766.6969,211.9219 C766.4469,212.0781 766.2906,212.3594 766.2906,212.6563 C766.2906,213.2188 766.6656,213.5 767.4156,213.5 L769.6813,213.5 C770.0406,213.5 770.2594,213.4688 770.3844,213.375 C770.65,213.2344 770.7906,212.9375 770.7906,212.6563 C770.7906,212.375 770.6656,212.125 770.4469,211.9531 C770.275,211.8281 770.1344,211.7969 769.6813,211.7969 L769.2906,211.7969 L769.6813,210.8125 L773.7281,210.8125 Z M773.025,209.1094 L770.3531,209.1094 L771.6969,205.8438 L773.025,209.1094 Z " fill="#000000"/><text fill="#000000" font-family="sans-serif" font-size="12" font-style="italic" lengthAdjust="spacingAndGlyphs" textLength="38" x="791.35" y="213.1543">Shape</text><line style="stroke:#A80036;stroke-width:1.5;" x1="732" x2="857" y1="225" y2="225"/><line style="stroke:#A80036;stroke-width:1.5;" x1="732" x2="857" y1="233" y2="233"/><rect fill="#F24D5C" height="6" style="stroke:#C82930;stroke-width:1.0;" width="6" x="739" y="241"/><text fill="#000000" font-family="sans-serif" font-size="11" lengthAdjust="spacingAndGlyphs" textLength="101" x="751" y="247.2104">definitionTerrain()</text><!--MD5=[849f596744cefc07f4ef7a39d5cd0400]
class Tortuga--><rect codeLine="26" fill="#FEFECE" filter="url(#fmr0azz3u229w)" height="60.8047" id="Tortuga" style="stroke:#A80036;stroke-width:1.5;" width="127" x="731" y="375.5"/><ellipse cx="768.05" cy="391.5" fill="#ADD1B2" rx="11" ry="11" style="stroke:#A80036;stroke-width:1.0;"/><path d="M770.3938,387.1719 C769.4563,386.7344 768.8625,386.5938 767.9875,386.5938 C765.3625,386.5938 763.3625,388.6719 763.3625,391.3906 L763.3625,392.5156 C763.3625,395.0938 765.4719,396.9844 768.3625,396.9844 C769.5813,396.9844 770.7375,396.6875 771.4875,396.1406 C772.0656,395.7344 772.3938,395.2813 772.3938,394.8906 C772.3938,394.4375 772.0031,394.0469 771.5344,394.0469 C771.3156,394.0469 771.1125,394.125 770.925,394.3125 C770.4719,394.7969 770.4719,394.7969 770.2844,394.8906 C769.8625,395.1563 769.175,395.2813 768.4094,395.2813 C766.3625,395.2813 765.0656,394.1875 765.0656,392.4844 L765.0656,391.3906 C765.0656,389.6094 766.3156,388.2969 768.05,388.2969 C768.6281,388.2969 769.2375,388.4531 769.7063,388.7031 C770.1906,388.9844 770.3625,389.2031 770.4563,389.6094 C770.5188,390.0156 770.55,390.1406 770.6906,390.2656 C770.8313,390.4063 771.0656,390.5156 771.2844,390.5156 C771.55,390.5156 771.8156,390.375 771.9875,390.1563 C772.0969,390 772.1281,389.8125 772.1281,389.3906 L772.1281,387.9688 C772.1281,387.5313 772.1125,387.4063 772.0188,387.25 C771.8625,386.9844 771.5813,386.8438 771.2844,386.8438 C770.9875,386.8438 770.7844,386.9375 770.5656,387.25 L770.3938,387.1719 Z " fill="#000000"/><text fill="#000000" font-family="sans-serif" font-size="12" lengthAdjust="spacingAndGlyphs" textLength="46" x="786.95" y="395.6543">Tortuga</text><line style="stroke:#A80036;stroke-width:1.5;" x1="732" x2="857" y1="407.5" y2="407.5"/><line style="stroke:#A80036;stroke-width:1.5;" x1="732" x2="857" y1="415.5" y2="415.5"/><rect fill="#F24D5C" height="6" style="stroke:#C82930;stroke-width:1.0;" width="6" x="739" y="423.5"/><text fill="#000000" font-family="sans-serif" font-size="11" lengthAdjust="spacingAndGlyphs" textLength="101" x="751" y="429.7104">definitionTerrain()</text><!--MD5=[985c3158abb020a51a6600c294a0f3dd]
class Atoll--><rect codeLine="31" fill="#FEFECE" filter="url(#fmr0azz3u229w)" height="60.8047" id="Atoll" style="stroke:#A80036;stroke-width:1.5;" width="127" x="893" y="375.5"/><ellipse cx="939.25" cy="391.5" fill="#ADD1B2" rx="11" ry="11" style="stroke:#A80036;stroke-width:1.0;"/><path d="M941.5938,387.1719 C940.6563,386.7344 940.0625,386.5938 939.1875,386.5938 C936.5625,386.5938 934.5625,388.6719 934.5625,391.3906 L934.5625,392.5156 C934.5625,395.0938 936.6719,396.9844 939.5625,396.9844 C940.7813,396.9844 941.9375,396.6875 942.6875,396.1406 C943.2656,395.7344 943.5938,395.2813 943.5938,394.8906 C943.5938,394.4375 943.2031,394.0469 942.7344,394.0469 C942.5156,394.0469 942.3125,394.125 942.125,394.3125 C941.6719,394.7969 941.6719,394.7969 941.4844,394.8906 C941.0625,395.1563 940.375,395.2813 939.6094,395.2813 C937.5625,395.2813 936.2656,394.1875 936.2656,392.4844 L936.2656,391.3906 C936.2656,389.6094 937.5156,388.2969 939.25,388.2969 C939.8281,388.2969 940.4375,388.4531 940.9063,388.7031 C941.3906,388.9844 941.5625,389.2031 941.6563,389.6094 C941.7188,390.0156 941.75,390.1406 941.8906,390.2656 C942.0313,390.4063 942.2656,390.5156 942.4844,390.5156 C942.75,390.5156 943.0156,390.375 943.1875,390.1563 C943.2969,390 943.3281,389.8125 943.3281,389.3906 L943.3281,387.9688 C943.3281,387.5313 943.3125,387.4063 943.2188,387.25 C943.0625,386.9844 942.7813,386.8438 942.4844,386.8438 C942.1875,386.8438 941.9844,386.9375 941.7656,387.25 L941.5938,387.1719 Z " fill="#000000"/><text fill="#000000" font-family="sans-serif" font-size="12" lengthAdjust="spacingAndGlyphs" textLength="26" x="959.75" y="395.6543">Atoll</text><line style="stroke:#A80036;stroke-width:1.5;" x1="894" x2="1019" y1="407.5" y2="407.5"/><line style="stroke:#A80036;stroke-width:1.5;" x1="894" x2="1019" y1="415.5" y2="415.5"/><rect fill="#F24D5C" height="6" style="stroke:#C82930;stroke-width:1.0;" width="6" x="901" y="423.5"/><text fill="#000000" font-family="sans-serif" font-size="11" lengthAdjust="spacingAndGlyphs" textLength="101" x="913" y="429.7104">definitionTerrain()</text><!--MD5=[535e1c812e5f347eb6d4426934a748ca]
class Tuile--><rect codeLine="36" fill="#FEFECE" filter="url(#fmr0azz3u229w)" height="120.0234" id="Tuile" style="stroke:#A80036;stroke-width:1.5;" width="90" x="483.5" y="346"/><ellipse cx="512" cy="362" fill="#ADD1B2" rx="11" ry="11" style="stroke:#A80036;stroke-width:1.0;"/><path d="M514.3438,357.6719 C513.4063,357.2344 512.8125,357.0938 511.9375,357.0938 C509.3125,357.0938 507.3125,359.1719 507.3125,361.8906 L507.3125,363.0156 C507.3125,365.5938 509.4219,367.4844 512.3125,367.4844 C513.5313,367.4844 514.6875,367.1875 515.4375,366.6406 C516.0156,366.2344 516.3438,365.7813 516.3438,365.3906 C516.3438,364.9375 515.9531,364.5469 515.4844,364.5469 C515.2656,364.5469 515.0625,364.625 514.875,364.8125 C514.4219,365.2969 514.4219,365.2969 514.2344,365.3906 C513.8125,365.6563 513.125,365.7813 512.3594,365.7813 C510.3125,365.7813 509.0156,364.6875 509.0156,362.9844 L509.0156,361.8906 C509.0156,360.1094 510.2656,358.7969 512,358.7969 C512.5781,358.7969 513.1875,358.9531 513.6563,359.2031 C514.1406,359.4844 514.3125,359.7031 514.4063,360.1094 C514.4688,360.5156 514.5,360.6406 514.6406,360.7656 C514.7813,360.9063 515.0156,361.0156 515.2344,361.0156 C515.5,361.0156 515.7656,360.875 515.9375,360.6563 C516.0469,360.5 516.0781,360.3125 516.0781,359.8906 L516.0781,358.4688 C516.0781,358.0313 516.0625,357.9063 515.9688,357.75 C515.8125,357.4844 515.5313,357.3438 515.2344,357.3438 C514.9375,357.3438 514.7344,357.4375 514.5156,357.75 L514.3438,357.6719 Z " fill="#000000"/><text fill="#000000" font-family="sans-serif" font-size="12" lengthAdjust="spacingAndGlyphs" textLength="28" x="529" y="366.1543">Tuile</text><line style="stroke:#A80036;stroke-width:1.5;" x1="484.5" x2="572.5" y1="378" y2="378"/><rect fill="none" height="6" style="stroke:#C82930;stroke-width:1.0;" width="6" x="491.5" y="386"/><text fill="#000000" font-family="sans-serif" font-size="11" lengthAdjust="spacingAndGlyphs" textLength="55" x="503.5" y="392.2104">Polygon p</text><rect fill="none" height="6" style="stroke:#C82930;stroke-width:1.0;" width="6" x="491.5" y="398.8047"/><text fill="#000000" font-family="sans-serif" font-size="11" lengthAdjust="spacingAndGlyphs" textLength="48" x="503.5" y="405.0151">Biome b</text><line style="stroke:#A80036;stroke-width:1.0;" x1="484.5" x2="572.5" y1="411.6094" y2="411.6094"/><ellipse cx="494.5" cy="422.6094" fill="#84BE84" rx="3" ry="3" style="stroke:#038048;stroke-width:1.0;"/><text fill="#000000" font-family="sans-serif" font-size="11" lengthAdjust="spacingAndGlyphs" textLength="36" x="503.5" y="425.8198">Tuile()</text><line style="stroke:#A80036;stroke-width:1.0;" x1="484.5" x2="572.5" y1="432.4141" y2="432.4141"/><ellipse cx="494.5" cy="443.4141" fill="#84BE84" rx="3" ry="3" style="stroke:#038048;stroke-width:1.0;"/><text fill="#000000" font-family="sans-serif" font-size="11" lengthAdjust="spacingAndGlyphs" textLength="64" x="503.5" y="446.6245">getBiome()</text><ellipse cx="494.5" cy="456.2188" fill="#84BE84" rx="3" ry="3" style="stroke:#038048;stroke-width:1.0;"/><text fill="#000000" font-family="sans-serif" font-size="11" lengthAdjust="spacingAndGlyphs" textLength="63" x="503.5" y="459.4292">setBiome()</text><!--MD5=[02a3388fd957b8ef6f687428eb00c6f6]
class GestionAltitude--><rect codeLine="47" fill="#FEFECE" filter="url(#fmr0azz3u229w)" height="86.4141" id="GestionAltitude" style="stroke:#A80036;stroke-width:1.5;" width="149" x="7" y="180.5"/><ellipse cx="33.7" cy="196.5" fill="#ADD1B2" rx="11" ry="11" style="stroke:#A80036;stroke-width:1.0;"/><path d="M36.0438,192.1719 C35.1063,191.7344 34.5125,191.5938 33.6375,191.5938 C31.0125,191.5938 29.0125,193.6719 29.0125,196.3906 L29.0125,197.5156 C29.0125,200.0938 31.1219,201.9844 34.0125,201.9844 C35.2313,201.9844 36.3875,201.6875 37.1375,201.1406 C37.7156,200.7344 38.0438,200.2813 38.0438,199.8906 C38.0438,199.4375 37.6531,199.0469 37.1844,199.0469 C36.9656,199.0469 36.7625,199.125 36.575,199.3125 C36.1219,199.7969 36.1219,199.7969 35.9344,199.8906 C35.5125,200.1563 34.825,200.2813 34.0594,200.2813 C32.0125,200.2813 30.7156,199.1875 30.7156,197.4844 L30.7156,196.3906 C30.7156,194.6094 31.9656,193.2969 33.7,193.2969 C34.2781,193.2969 34.8875,193.4531 35.3563,193.7031 C35.8406,193.9844 36.0125,194.2031 36.1063,194.6094 C36.1688,195.0156 36.2,195.1406 36.3406,195.2656 C36.4813,195.4063 36.7156,195.5156 36.9344,195.5156 C37.2,195.5156 37.4656,195.375 37.6375,195.1563 C37.7469,195 37.7781,194.8125 37.7781,194.3906 L37.7781,192.9688 C37.7781,192.5313 37.7625,192.4063 37.6688,192.25 C37.5125,191.9844 37.2313,191.8438 36.9344,191.8438 C36.6375,191.8438 36.4344,191.9375 36.2156,192.25 L36.0438,192.1719 Z " fill="#000000"/><text fill="#000000" font-family="sans-serif" font-size="12" lengthAdjust="spacingAndGlyphs" textLength="91" x="50.3" y="200.6543">GestionAltitude</text><line style="stroke:#A80036;stroke-width:1.5;" x1="8" x2="155" y1="212.5" y2="212.5"/><ellipse cx="18" cy="223.5" fill="#84BE84" rx="3" ry="3" style="stroke:#038048;stroke-width:1.0;"/><text fill="#000000" font-family="sans-serif" font-size="11" lengthAdjust="spacingAndGlyphs" textLength="96" x="27" y="226.7104">GestionAltitude()</text><line style="stroke:#A80036;stroke-width:1.0;" x1="8" x2="155" y1="233.3047" y2="233.3047"/><ellipse cx="18" cy="244.3047" fill="#84BE84" rx="3" ry="3" style="stroke:#038048;stroke-width:1.0;"/><text fill="#000000" font-family="sans-serif" font-size="11" lengthAdjust="spacingAndGlyphs" textLength="106" x="27" y="247.5151">altitudeMaximale()</text><ellipse cx="18" cy="257.1094" fill="#84BE84" rx="3" ry="3" style="stroke:#038048;stroke-width:1.0;"/><text fill="#000000" font-family="sans-serif" font-size="11" lengthAdjust="spacingAndGlyphs" textLength="123" x="27" y="260.3198">propragationAltitude()</text><!--MD5=[2164033ebad8c6c42c6b0f8398c50ff8]
class GestionAquifere--><rect codeLine="55" fill="#FEFECE" filter="url(#fmr0azz3u229w)" height="86.4141" id="GestionAquifere" style="stroke:#A80036;stroke-width:1.5;" width="154" x="191.5" y="180.5"/><ellipse cx="217.75" cy="196.5" fill="#ADD1B2" rx="11" ry="11" style="stroke:#A80036;stroke-width:1.0;"/><path d="M220.0938,192.1719 C219.1563,191.7344 218.5625,191.5938 217.6875,191.5938 C215.0625,191.5938 213.0625,193.6719 213.0625,196.3906 L213.0625,197.5156 C213.0625,200.0938 215.1719,201.9844 218.0625,201.9844 C219.2813,201.9844 220.4375,201.6875 221.1875,201.1406 C221.7656,200.7344 222.0938,200.2813 222.0938,199.8906 C222.0938,199.4375 221.7031,199.0469 221.2344,199.0469 C221.0156,199.0469 220.8125,199.125 220.625,199.3125 C220.1719,199.7969 220.1719,199.7969 219.9844,199.8906 C219.5625,200.1563 218.875,200.2813 218.1094,200.2813 C216.0625,200.2813 214.7656,199.1875 214.7656,197.4844 L214.7656,196.3906 C214.7656,194.6094 216.0156,193.2969 217.75,193.2969 C218.3281,193.2969 218.9375,193.4531 219.4063,193.7031 C219.8906,193.9844 220.0625,194.2031 220.1563,194.6094 C220.2188,195.0156 220.25,195.1406 220.3906,195.2656 C220.5313,195.4063 220.7656,195.5156 220.9844,195.5156 C221.25,195.5156 221.5156,195.375 221.6875,195.1563 C221.7969,195 221.8281,194.8125 221.8281,194.3906 L221.8281,192.9688 C221.8281,192.5313 221.8125,192.4063 221.7188,192.25 C221.5625,191.9844 221.2813,191.8438 220.9844,191.8438 C220.6875,191.8438 220.4844,191.9375 220.2656,192.25 L220.0938,192.1719 Z " fill="#000000"/><text fill="#000000" font-family="sans-serif" font-size="12" lengthAdjust="spacingAndGlyphs" textLength="97" x="234.25" y="200.6543">GestionAquifere</text><line style="stroke:#A80036;stroke-width:1.5;" x1="192.5" x2="344.5" y1="212.5" y2="212.5"/><ellipse cx="202.5" cy="223.5" fill="#84BE84" rx="3" ry="3" style="stroke:#038048;stroke-width:1.0;"/><text fill="#000000" font-family="sans-serif" font-size="11" lengthAdjust="spacingAndGlyphs" textLength="101" x="211.5" y="226.7104">GestionAquifere()</text><line style="stroke:#A80036;stroke-width:1.0;" x1="192.5" x2="344.5" y1="233.3047" y2="233.3047"/><ellipse cx="202.5" cy="244.3047" fill="#84BE84" rx="3" ry="3" style="stroke:#038048;stroke-width:1.0;"/><text fill="#000000" font-family="sans-serif" font-size="11" lengthAdjust="spacingAndGlyphs" textLength="92" x="211.5" y="247.5151">placerAquifere()</text><ellipse cx="202.5" cy="257.1094" fill="#84BE84" rx="3" ry="3" style="stroke:#038048;stroke-width:1.0;"/><text fill="#000000" font-family="sans-serif" font-size="11" lengthAdjust="spacingAndGlyphs" textLength="128" x="211.5" y="260.3198">propragationAquifere()</text><!--MD5=[d1b570f8f0f0a1fc305620beba712803]
class GestionColorier--><rect codeLine="63" fill="#FEFECE" filter="url(#fmr0azz3u229w)" height="124.8281" id="GestionColorier" style="stroke:#A80036;stroke-width:1.5;" width="126" x="380.5" y="161"/><ellipse cx="395.5" cy="177" fill="#ADD1B2" rx="11" ry="11" style="stroke:#A80036;stroke-width:1.0;"/><path d="M397.8438,172.6719 C396.9063,172.2344 396.3125,172.0938 395.4375,172.0938 C392.8125,172.0938 390.8125,174.1719 390.8125,176.8906 L390.8125,178.0156 C390.8125,180.5938 392.9219,182.4844 395.8125,182.4844 C397.0313,182.4844 398.1875,182.1875 398.9375,181.6406 C399.5156,181.2344 399.8438,180.7813 399.8438,180.3906 C399.8438,179.9375 399.4531,179.5469 398.9844,179.5469 C398.7656,179.5469 398.5625,179.625 398.375,179.8125 C397.9219,180.2969 397.9219,180.2969 397.7344,180.3906 C397.3125,180.6563 396.625,180.7813 395.8594,180.7813 C393.8125,180.7813 392.5156,179.6875 392.5156,177.9844 L392.5156,176.8906 C392.5156,175.1094 393.7656,173.7969 395.5,173.7969 C396.0781,173.7969 396.6875,173.9531 397.1563,174.2031 C397.6406,174.4844 397.8125,174.7031 397.9063,175.1094 C397.9688,175.5156 398,175.6406 398.1406,175.7656 C398.2813,175.9063 398.5156,176.0156 398.7344,176.0156 C399,176.0156 399.2656,175.875 399.4375,175.6563 C399.5469,175.5 399.5781,175.3125 399.5781,174.8906 L399.5781,173.4688 C399.5781,173.0313 399.5625,172.9063 399.4688,172.75 C399.3125,172.4844 399.0313,172.3438 398.7344,172.3438 C398.4375,172.3438 398.2344,172.4375 398.0156,172.75 L397.8438,172.6719 Z " fill="#000000"/><text fill="#000000" font-family="sans-serif" font-size="12" lengthAdjust="spacingAndGlyphs" textLength="94" x="409.5" y="181.1543">GestionColorier</text><line style="stroke:#A80036;stroke-width:1.5;" x1="381.5" x2="505.5" y1="193" y2="193"/><ellipse cx="391.5" cy="204" fill="#84BE84" rx="3" ry="3" style="stroke:#038048;stroke-width:1.0;"/><text fill="#000000" font-family="sans-serif" font-size="11" lengthAdjust="spacingAndGlyphs" textLength="96" x="400.5" y="207.2104">GestionColorier()</text><line style="stroke:#A80036;stroke-width:1.0;" x1="381.5" x2="505.5" y1="213.8047" y2="213.8047"/><ellipse cx="391.5" cy="224.8047" fill="#84BE84" rx="3" ry="3" style="stroke:#038048;stroke-width:1.0;"/><text fill="#000000" font-family="sans-serif" font-size="11" lengthAdjust="spacingAndGlyphs" textLength="50" x="400.5" y="228.0151">colorier()</text><ellipse cx="391.5" cy="237.6094" fill="#84BE84" rx="3" ry="3" style="stroke:#038048;stroke-width:1.0;"/><text fill="#000000" font-family="sans-serif" font-size="11" lengthAdjust="spacingAndGlyphs" textLength="94" x="400.5" y="240.8198">colorierAltitude()</text><ellipse cx="391.5" cy="250.4141" fill="#84BE84" rx="3" ry="3" style="stroke:#038048;stroke-width:1.0;"/><text fill="#000000" font-family="sans-serif" font-size="11" lengthAdjust="spacingAndGlyphs" textLength="99" x="400.5" y="253.6245">colorierAquifere()</text><ellipse cx="391.5" cy="263.2188" fill="#84BE84" rx="3" ry="3" style="stroke:#038048;stroke-width:1.0;"/><text fill="#000000" font-family="sans-serif" font-size="11" lengthAdjust="spacingAndGlyphs" textLength="79" x="400.5" y="266.4292">colorierBase()</text><ellipse cx="391.5" cy="276.0234" fill="#84BE84" rx="3" ry="3" style="stroke:#038048;stroke-width:1.0;"/><text fill="#000000" font-family="sans-serif" font-size="11" lengthAdjust="spacingAndGlyphs" textLength="87" x="400.5" y="279.2339">colorierOcean()</text><!--MD5=[b1468214090ffacd1db5ce1520d98302]
class Altitude--><rect codeLine="74" fill="#FEFECE" filter="url(#fmr0azz3u229w)" height="60.8047" id="Altitude" style="stroke:#A80036;stroke-width:1.5;" width="87" x="609" y="375.5"/><ellipse cx="628.5" cy="391.5" fill="#ADD1B2" rx="11" ry="11" style="stroke:#A80036;stroke-width:1.0;"/><path d="M630.8438,387.1719 C629.9063,386.7344 629.3125,386.5938 628.4375,386.5938 C625.8125,386.5938 623.8125,388.6719 623.8125,391.3906 L623.8125,392.5156 C623.8125,395.0938 625.9219,396.9844 628.8125,396.9844 C630.0313,396.9844 631.1875,396.6875 631.9375,396.1406 C632.5156,395.7344 632.8438,395.2813 632.8438,394.8906 C632.8438,394.4375 632.4531,394.0469 631.9844,394.0469 C631.7656,394.0469 631.5625,394.125 631.375,394.3125 C630.9219,394.7969 630.9219,394.7969 630.7344,394.8906 C630.3125,395.1563 629.625,395.2813 628.8594,395.2813 C626.8125,395.2813 625.5156,394.1875 625.5156,392.4844 L625.5156,391.3906 C625.5156,389.6094 626.7656,388.2969 628.5,388.2969 C629.0781,388.2969 629.6875,388.4531 630.1563,388.7031 C630.6406,388.9844 630.8125,389.2031 630.9063,389.6094 C630.9688,390.0156 631,390.1406 631.1406,390.2656 C631.2813,390.4063 631.5156,390.5156 631.7344,390.5156 C632,390.5156 632.2656,390.375 632.4375,390.1563 C632.5469,390 632.5781,389.8125 632.5781,389.3906 L632.5781,387.9688 C632.5781,387.5313 632.5625,387.4063 632.4688,387.25 C632.3125,386.9844 632.0313,386.8438 631.7344,386.8438 C631.4375,386.8438 631.2344,386.9375 631.0156,387.25 L630.8438,387.1719 Z " fill="#000000"/><text fill="#000000" font-family="sans-serif" font-size="12" lengthAdjust="spacingAndGlyphs" textLength="45" x="643.5" y="395.6543">Altitude</text><line style="stroke:#A80036;stroke-width:1.5;" x1="610" x2="695" y1="407.5" y2="407.5"/><rect fill="none" height="6" style="stroke:#C82930;stroke-width:1.0;" width="6" x="617" y="415.5"/><text fill="#000000" font-family="sans-serif" font-size="11" lengthAdjust="spacingAndGlyphs" textLength="61" x="629" y="421.7104">int altitude</text><line style="stroke:#A80036;stroke-width:1.5;" x1="610" x2="695" y1="428.3047" y2="428.3047"/><!--MD5=[614e9b990c437af80a2d6c3f75ae8f29]
class Humidite--><rect codeLine="79" fill="#FEFECE" filter="url(#fmr0azz3u229w)" height="112.0234" id="Humidite" style="stroke:#A80036;stroke-width:1.5;" width="131" x="317" y="350"/><ellipse cx="352.7" cy="366" fill="#EB937F" rx="11" ry="11" style="stroke:#A80036;stroke-width:1.0;"/><path d="M351.4969,366.875 L352.95,366.875 L352.95,366.9844 C352.95,367.3906 352.9813,367.5469 353.0594,367.7031 C353.2156,367.9531 353.4969,368.1094 353.7938,368.1094 C354.0438,368.1094 354.3094,367.9688 354.4656,367.75 C354.5906,367.5938 354.6219,367.4375 354.6219,366.9844 L354.6219,365.0625 C354.6219,364.9063 354.6219,364.8594 354.6063,364.7031 C354.5438,364.2344 354.2313,363.9219 353.7781,363.9219 C353.5281,363.9219 353.2625,364.0625 353.0906,364.2813 C352.9813,364.4531 352.95,364.6094 352.95,365.0625 L352.95,365.1875 L351.4969,365.1875 L351.4969,362.7813 L355.4813,362.7813 L355.4813,363.6406 C355.4813,364.0469 355.5125,364.2188 355.5906,364.375 C355.7625,364.625 356.0438,364.7813 356.325,364.7813 C356.5906,364.7813 356.8563,364.6406 357.0281,364.4219 C357.1375,364.25 357.1688,364.1094 357.1688,363.6406 L357.1688,361.0938 L349.5438,361.0938 C349.1063,361.0938 348.9813,361.1094 348.825,361.2031 C348.575,361.3594 348.4188,361.6563 348.4188,361.9375 C348.4188,362.2188 348.5594,362.4688 348.7781,362.6406 C348.9344,362.75 349.1219,362.7813 349.5438,362.7813 L349.7938,362.7813 L349.7938,369.2969 L349.5438,369.2969 C349.1375,369.2969 348.9813,369.3125 348.825,369.4219 C348.575,369.5938 348.4188,369.8594 348.4188,370.1563 C348.4188,370.4219 348.5594,370.6719 348.7781,370.8281 C348.9188,370.9531 349.1531,371 349.5438,371 L357.5438,371 L357.5438,368.4219 C357.5438,367.9844 357.5125,367.8438 357.4344,367.6875 C357.2625,367.4375 356.9813,367.2813 356.7,367.2813 C356.4344,367.2813 356.1688,367.3906 355.9969,367.6406 C355.8875,367.7969 355.8563,367.9375 355.8563,368.4219 L355.8563,369.2969 L351.4969,369.2969 L351.4969,366.875 Z " fill="#000000"/><text fill="#000000" font-family="sans-serif" font-size="12" lengthAdjust="spacingAndGlyphs" textLength="53" x="371.3" y="370.1543">Humidite</text><line style="stroke:#A80036;stroke-width:1.5;" x1="318" x2="447" y1="382" y2="382"/><text fill="#000000" font-family="sans-serif" font-size="11" lengthAdjust="spacingAndGlyphs" textLength="23" x="323" y="396.2104">DRY</text><text fill="#000000" font-family="sans-serif" font-size="11" lengthAdjust="spacingAndGlyphs" textLength="52" x="323" y="409.0151">REGULAR</text><text fill="#000000" font-family="sans-serif" font-size="11" lengthAdjust="spacingAndGlyphs" textLength="25" x="323" y="421.8198">WET</text><line style="stroke:#A80036;stroke-width:1.0;" x1="318" x2="447" y1="428.4141" y2="428.4141"/><ellipse cx="328" cy="439.4141" fill="#84BE84" rx="3" ry="3" style="stroke:#038048;stroke-width:1.0;"/><text fill="#000000" font-family="sans-serif" font-size="11" lengthAdjust="spacingAndGlyphs" textLength="71" x="337" y="442.6245">getCouleur()</text><ellipse cx="328" cy="452.2188" fill="#84BE84" rx="3" ry="3" style="stroke:#038048;stroke-width:1.0;"/><text fill="#000000" font-family="sans-serif" font-size="11" lengthAdjust="spacingAndGlyphs" textLength="105" x="337" y="455.4292">getNextHumidite()</text><!--MD5=[9ed323de6e5b1e2bdfe64b349a4e1197]
class Biome--><rect codeLine="89" fill="#FEFECE" filter="url(#fmr0azz3u229w)" height="60.8047" id="Biome" style="stroke:#A80036;stroke-width:1.5;" width="76" x="490.5" y="545"/><ellipse cx="508.65" cy="561" fill="#A9DCDF" rx="11" ry="11" style="stroke:#A80036;stroke-width:1.0;"/><path d="M510.7281,562.8125 L511.1188,563.7969 L510.7281,563.7969 C510.275,563.7969 510.1656,563.8125 510.0094,563.9219 C509.7594,564.0781 509.6031,564.3594 509.6031,564.6563 C509.6031,564.9219 509.7438,565.1719 509.9625,565.3281 C510.1031,565.4531 510.3063,565.5 510.7281,565.5 L513.0875,565.5 C513.4469,565.5 513.6656,565.4688 513.8063,565.375 C514.0563,565.2344 514.2125,564.9375 514.2125,564.6563 C514.2125,564.375 514.0719,564.125 513.8531,563.9688 C513.6813,563.8281 513.525,563.7969 513.0563,563.7969 L509.6656,555.5938 L505.9938,555.5938 C505.5406,555.5938 505.4156,555.6094 505.2594,555.7031 C505.0094,555.875 504.8531,556.1563 504.8531,556.4375 C504.8531,556.7188 504.9938,556.9688 505.2125,557.1406 C505.3844,557.25 505.5563,557.2813 505.9938,557.2813 L507.0719,557.2813 L504.4313,563.7969 C504.0094,563.7969 503.8531,563.8125 503.6969,563.9219 C503.4469,564.0781 503.2906,564.3594 503.2906,564.6563 C503.2906,565.2188 503.6656,565.5 504.4156,565.5 L506.6813,565.5 C507.0406,565.5 507.2594,565.4688 507.3844,565.375 C507.65,565.2344 507.7906,564.9375 507.7906,564.6563 C507.7906,564.375 507.6656,564.125 507.4469,563.9531 C507.275,563.8281 507.1344,563.7969 506.6813,563.7969 L506.2906,563.7969 L506.6813,562.8125 L510.7281,562.8125 Z M510.025,561.1094 L507.3531,561.1094 L508.6969,557.8438 L510.025,561.1094 Z " fill="#000000"/><text fill="#000000" font-family="sans-serif" font-size="12" font-style="italic" lengthAdjust="spacingAndGlyphs" textLength="37" x="523.35" y="565.1543">Biome</text><line style="stroke:#A80036;stroke-width:1.5;" x1="491.5" x2="565.5" y1="577" y2="577"/><line style="stroke:#A80036;stroke-width:1.5;" x1="491.5" x2="565.5" y1="585" y2="585"/><rect fill="#F24D5C" height="6" style="stroke:#C82930;stroke-width:1.0;" width="6" x="498.5" y="593"/><text fill="#000000" font-family="sans-serif" font-size="11" lengthAdjust="spacingAndGlyphs" textLength="50" x="510.5" y="599.2104">colorier()</text><!--MD5=[ec580956e9d6a9c6909e4e8ea65c053d]
class LagonBiome--><rect codeLine="94" fill="#FEFECE" filter="url(#fmr0azz3u229w)" height="60.8047" id="LagonBiome" style="stroke:#A80036;stroke-width:1.5;" width="106" x="242.5" y="685"/><ellipse cx="257.5" cy="701" fill="#ADD1B2" rx="11" ry="11" style="stroke:#A80036;stroke-width:1.0;"/><path d="M259.8438,696.6719 C258.9063,696.2344 258.3125,696.0938 257.4375,696.0938 C254.8125,696.0938 252.8125,698.1719 252.8125,700.8906 L252.8125,702.0156 C252.8125,704.5938 254.9219,706.4844 257.8125,706.4844 C259.0313,706.4844 260.1875,706.1875 260.9375,705.6406 C261.5156,705.2344 261.8438,704.7813 261.8438,704.3906 C261.8438,703.9375 261.4531,703.5469 260.9844,703.5469 C260.7656,703.5469 260.5625,703.625 260.375,703.8125 C259.9219,704.2969 259.9219,704.2969 259.7344,704.3906 C259.3125,704.6563 258.625,704.7813 257.8594,704.7813 C255.8125,704.7813 254.5156,703.6875 254.5156,701.9844 L254.5156,700.8906 C254.5156,699.1094 255.7656,697.7969 257.5,697.7969 C258.0781,697.7969 258.6875,697.9531 259.1563,698.2031 C259.6406,698.4844 259.8125,698.7031 259.9063,699.1094 C259.9688,699.5156 260,699.6406 260.1406,699.7656 C260.2813,699.9063 260.5156,700.0156 260.7344,700.0156 C261,700.0156 261.2656,699.875 261.4375,699.6563 C261.5469,699.5 261.5781,699.3125 261.5781,698.8906 L261.5781,697.4688 C261.5781,697.0313 261.5625,696.9063 261.4688,696.75 C261.3125,696.4844 261.0313,696.3438 260.7344,696.3438 C260.4375,696.3438 260.2344,696.4375 260.0156,696.75 L259.8438,696.6719 Z " fill="#000000"/><text fill="#000000" font-family="sans-serif" font-size="12" lengthAdjust="spacingAndGlyphs" textLength="74" x="271.5" y="705.1543">LagonBiome</text><line style="stroke:#A80036;stroke-width:1.5;" x1="243.5" x2="347.5" y1="717" y2="717"/><line style="stroke:#A80036;stroke-width:1.5;" x1="243.5" x2="347.5" y1="725" y2="725"/><rect fill="#F24D5C" height="6" style="stroke:#C82930;stroke-width:1.0;" width="6" x="250.5" y="733"/><text fill="#000000" font-family="sans-serif" font-size="11" lengthAdjust="spacingAndGlyphs" textLength="50" x="262.5" y="739.2104">colorier()</text><!--MD5=[84b132d30c6416faf25e4e19b04ad580]
class VegetationBiome--><rect codeLine="99" fill="#FEFECE" filter="url(#fmr0azz3u229w)" height="60.8047" id="VegetationBiome" style="stroke:#A80036;stroke-width:1.5;" width="135" x="384" y="685"/><ellipse cx="399" cy="701" fill="#ADD1B2" rx="11" ry="11" style="stroke:#A80036;stroke-width:1.0;"/><path d="M401.3438,696.6719 C400.4063,696.2344 399.8125,696.0938 398.9375,696.0938 C396.3125,696.0938 394.3125,698.1719 394.3125,700.8906 L394.3125,702.0156 C394.3125,704.5938 396.4219,706.4844 399.3125,706.4844 C400.5313,706.4844 401.6875,706.1875 402.4375,705.6406 C403.0156,705.2344 403.3438,704.7813 403.3438,704.3906 C403.3438,703.9375 402.9531,703.5469 402.4844,703.5469 C402.2656,703.5469 402.0625,703.625 401.875,703.8125 C401.4219,704.2969 401.4219,704.2969 401.2344,704.3906 C400.8125,704.6563 400.125,704.7813 399.3594,704.7813 C397.3125,704.7813 396.0156,703.6875 396.0156,701.9844 L396.0156,700.8906 C396.0156,699.1094 397.2656,697.7969 399,697.7969 C399.5781,697.7969 400.1875,697.9531 400.6563,698.2031 C401.1406,698.4844 401.3125,698.7031 401.4063,699.1094 C401.4688,699.5156 401.5,699.6406 401.6406,699.7656 C401.7813,699.9063 402.0156,700.0156 402.2344,700.0156 C402.5,700.0156 402.7656,699.875 402.9375,699.6563 C403.0469,699.5 403.0781,699.3125 403.0781,698.8906 L403.0781,697.4688 C403.0781,697.0313 403.0625,696.9063 402.9688,696.75 C402.8125,696.4844 402.5313,696.3438 402.2344,696.3438 C401.9375,696.3438 401.7344,696.4375 401.5156,696.75 L401.3438,696.6719 Z " fill="#000000"/><text fill="#000000" font-family="sans-serif" font-size="12" lengthAdjust="spacingAndGlyphs" textLength="103" x="413" y="705.1543">VegetationBiome</text><line style="stroke:#A80036;stroke-width:1.5;" x1="385" x2="518" y1="717" y2="717"/><line style="stroke:#A80036;stroke-width:1.5;" x1="385" x2="518" y1="725" y2="725"/><rect fill="#F24D5C" height="6" style="stroke:#C82930;stroke-width:1.0;" width="6" x="392" y="733"/><text fill="#000000" font-family="sans-serif" font-size="11" lengthAdjust="spacingAndGlyphs" textLength="50" x="404" y="739.2104">colorier()</text><!--MD5=[9e5bfd8cf223535560144c2138e1d5f8]
class PlageBiome--><rect codeLine="104" fill="#FEFECE" filter="url(#fmr0azz3u229w)" height="60.8047" id="PlageBiome" style="stroke:#A80036;stroke-width:1.5;" width="102" x="554.5" y="685"/><ellipse cx="569.5" cy="701" fill="#ADD1B2" rx="11" ry="11" style="stroke:#A80036;stroke-width:1.0;"/><path d="M571.8438,696.6719 C570.9063,696.2344 570.3125,696.0938 569.4375,696.0938 C566.8125,696.0938 564.8125,698.1719 564.8125,700.8906 L564.8125,702.0156 C564.8125,704.5938 566.9219,706.4844 569.8125,706.4844 C571.0313,706.4844 572.1875,706.1875 572.9375,705.6406 C573.5156,705.2344 573.8438,704.7813 573.8438,704.3906 C573.8438,703.9375 573.4531,703.5469 572.9844,703.5469 C572.7656,703.5469 572.5625,703.625 572.375,703.8125 C571.9219,704.2969 571.9219,704.2969 571.7344,704.3906 C571.3125,704.6563 570.625,704.7813 569.8594,704.7813 C567.8125,704.7813 566.5156,703.6875 566.5156,701.9844 L566.5156,700.8906 C566.5156,699.1094 567.7656,697.7969 569.5,697.7969 C570.0781,697.7969 570.6875,697.9531 571.1563,698.2031 C571.6406,698.4844 571.8125,698.7031 571.9063,699.1094 C571.9688,699.5156 572,699.6406 572.1406,699.7656 C572.2813,699.9063 572.5156,700.0156 572.7344,700.0156 C573,700.0156 573.2656,699.875 573.4375,699.6563 C573.5469,699.5 573.5781,699.3125 573.5781,698.8906 L573.5781,697.4688 C573.5781,697.0313 573.5625,696.9063 573.4688,696.75 C573.3125,696.4844 573.0313,696.3438 572.7344,696.3438 C572.4375,696.3438 572.2344,696.4375 572.0156,696.75 L571.8438,696.6719 Z " fill="#000000"/><text fill="#000000" font-family="sans-serif" font-size="12" lengthAdjust="spacingAndGlyphs" textLength="70" x="583.5" y="705.1543">PlageBiome</text><line style="stroke:#A80036;stroke-width:1.5;" x1="555.5" x2="655.5" y1="717" y2="717"/><line style="stroke:#A80036;stroke-width:1.5;" x1="555.5" x2="655.5" y1="725" y2="725"/><rect fill="#F24D5C" height="6" style="stroke:#C82930;stroke-width:1.0;" width="6" x="562.5" y="733"/><text fill="#000000" font-family="sans-serif" font-size="11" lengthAdjust="spacingAndGlyphs" textLength="50" x="574.5" y="739.2104">colorier()</text><!--MD5=[d549b14aa1a35d02a53729700013dd34]
class OceanBiome--><rect codeLine="109" fill="#FEFECE" filter="url(#fmr0azz3u229w)" height="60.8047" id="OceanBiome" style="stroke:#A80036;stroke-width:1.5;" width="109" x="692" y="685"/><ellipse cx="707" cy="701" fill="#ADD1B2" rx="11" ry="11" style="stroke:#A80036;stroke-width:1.0;"/><path d="M709.3438,696.6719 C708.4063,696.2344 707.8125,696.0938 706.9375,696.0938 C704.3125,696.0938 702.3125,698.1719 702.3125,700.8906 L702.3125,702.0156 C702.3125,704.5938 704.4219,706.4844 707.3125,706.4844 C708.5313,706.4844 709.6875,706.1875 710.4375,705.6406 C711.0156,705.2344 711.3438,704.7813 711.3438,704.3906 C711.3438,703.9375 710.9531,703.5469 710.4844,703.5469 C710.2656,703.5469 710.0625,703.625 709.875,703.8125 C709.4219,704.2969 709.4219,704.2969 709.2344,704.3906 C708.8125,704.6563 708.125,704.7813 707.3594,704.7813 C705.3125,704.7813 704.0156,703.6875 704.0156,701.9844 L704.0156,700.8906 C704.0156,699.1094 705.2656,697.7969 707,697.7969 C707.5781,697.7969 708.1875,697.9531 708.6563,698.2031 C709.1406,698.4844 709.3125,698.7031 709.4063,699.1094 C709.4688,699.5156 709.5,699.6406 709.6406,699.7656 C709.7813,699.9063 710.0156,700.0156 710.2344,700.0156 C710.5,700.0156 710.7656,699.875 710.9375,699.6563 C711.0469,699.5 711.0781,699.3125 711.0781,698.8906 L711.0781,697.4688 C711.0781,697.0313 711.0625,696.9063 710.9688,696.75 C710.8125,696.4844 710.5313,696.3438 710.2344,696.3438 C709.9375,696.3438 709.7344,696.4375 709.5156,696.75 L709.3438,696.6719 Z " fill="#000000"/><text fill="#000000" font-family="sans-serif" font-size="12" lengthAdjust="spacingAndGlyphs" textLength="77" x="721" y="705.1543">OceanBiome</text><line style="stroke:#A80036;stroke-width:1.5;" x1="693" x2="800" y1="717" y2="717"/><line style="stroke:#A80036;stroke-width:1.5;" x1="693" x2="800" y1="725" y2="725"/><rect fill="#F24D5C" height="6" style="stroke:#C82930;stroke-width:1.0;" width="6" x="700" y="733"/><text fill="#000000" font-family="sans-serif" font-size="11" lengthAdjust="spacingAndGlyphs" textLength="50" x="712" y="739.2104">colorier()</text><!--MD5=[18eee71c88ab61f27581b8cbdd3ef5ee]
class Color--><rect codeLine="114" fill="#FEFECE" filter="url(#fmr0azz3u229w)" height="99.2188" id="Color" style="stroke:#A80036;stroke-width:1.5;" width="85" x="602" y="526"/><ellipse cx="626.45" cy="542" fill="#EB937F" rx="11" ry="11" style="stroke:#A80036;stroke-width:1.0;"/><path d="M625.2469,542.875 L626.7,542.875 L626.7,542.9844 C626.7,543.3906 626.7313,543.5469 626.8094,543.7031 C626.9656,543.9531 627.2469,544.1094 627.5438,544.1094 C627.7938,544.1094 628.0594,543.9688 628.2156,543.75 C628.3406,543.5938 628.3719,543.4375 628.3719,542.9844 L628.3719,541.0625 C628.3719,540.9063 628.3719,540.8594 628.3563,540.7031 C628.2938,540.2344 627.9813,539.9219 627.5281,539.9219 C627.2781,539.9219 627.0125,540.0625 626.8406,540.2813 C626.7313,540.4531 626.7,540.6094 626.7,541.0625 L626.7,541.1875 L625.2469,541.1875 L625.2469,538.7813 L629.2313,538.7813 L629.2313,539.6406 C629.2313,540.0469 629.2625,540.2188 629.3406,540.375 C629.5125,540.625 629.7938,540.7813 630.075,540.7813 C630.3406,540.7813 630.6063,540.6406 630.7781,540.4219 C630.8875,540.25 630.9188,540.1094 630.9188,539.6406 L630.9188,537.0938 L623.2938,537.0938 C622.8563,537.0938 622.7313,537.1094 622.575,537.2031 C622.325,537.3594 622.1688,537.6563 622.1688,537.9375 C622.1688,538.2188 622.3094,538.4688 622.5281,538.6406 C622.6844,538.75 622.8719,538.7813 623.2938,538.7813 L623.5438,538.7813 L623.5438,545.2969 L623.2938,545.2969 C622.8875,545.2969 622.7313,545.3125 622.575,545.4219 C622.325,545.5938 622.1688,545.8594 622.1688,546.1563 C622.1688,546.4219 622.3094,546.6719 622.5281,546.8281 C622.6688,546.9531 622.9031,547 623.2938,547 L631.2938,547 L631.2938,544.4219 C631.2938,543.9844 631.2625,543.8438 631.1844,543.6875 C631.0125,543.4375 630.7313,543.2813 630.45,543.2813 C630.1844,543.2813 629.9188,543.3906 629.7469,543.6406 C629.6375,543.7969 629.6063,543.9375 629.6063,544.4219 L629.6063,545.2969 L625.2469,545.2969 L625.2469,542.875 Z " fill="#000000"/><text fill="#000000" font-family="sans-serif" font-size="12" lengthAdjust="spacingAndGlyphs" textLength="32" x="642.55" y="546.1543">Color</text><line style="stroke:#A80036;stroke-width:1.5;" x1="603" x2="686" y1="558" y2="558"/><text fill="#000000" font-family="sans-serif" font-size="11" lengthAdjust="spacingAndGlyphs" textLength="29" x="608" y="572.2104">VERT</text><text fill="#000000" font-family="sans-serif" font-size="11" lengthAdjust="spacingAndGlyphs" textLength="73" x="608" y="585.0151">BLEU_FONCE</text><text fill="#000000" font-family="sans-serif" font-size="11" lengthAdjust="spacingAndGlyphs" textLength="67" x="608" y="597.8198">BLEU_CLAIR</text><text fill="#000000" font-family="sans-serif" font-size="11" lengthAdjust="spacingAndGlyphs" textLength="34" x="608" y="610.6245">JAUNE</text><line style="stroke:#A80036;stroke-width:1.5;" x1="603" x2="686" y1="617.2188" y2="617.2188"/><!--MD5=[20d6a402a390ff98e928eca3361199e9]
link Ile to Terrain--><path codeLine="122" d="M588.5,113.214 C588.5,113.214 588.5,138.013 588.5,149.946 " fill="none" id="Ile-Terrain" style="stroke:#A80036;stroke-width:1.0;"/><polygon fill="#A80036" points="588.5,163.234,592.5,154.234,588.5,158.234,584.5,154.234,588.5,163.234" style="stroke:#A80036;stroke-width:1.0;"/><line style="stroke:#A80036;stroke-width:1.0;" x1="588.5" x2="588.5" y1="158.234" y2="150.234"/><polygon fill="#A80036" points="588.5,101.214,584.5,107.214,588.5,113.214,592.5,107.214,588.5,101.214" style="stroke:#A80036;stroke-width:1.0;"/><text fill="#000000" font-family="sans-serif" font-size="13" lengthAdjust="spacingAndGlyphs" textLength="8" x="579.8875" y="121.6374">1</text><text fill="#000000" font-family="sans-serif" font-size="13" lengthAdjust="spacingAndGlyphs" textLength="7" x="581.0953" y="152.4718">*</text><!--MD5=[71d477ee77acab7c3f4ade4ae22d7577]
link Tuile to Biome--><path codeLine="123" d="M528.5,478.054 C528.5,478.054 528.5,515.532 528.5,531.393 " fill="none" id="Tuile-Biome" style="stroke:#A80036;stroke-width:1.0;"/><polygon fill="#A80036" points="528.5,544.589,532.5,535.589,528.5,539.589,524.5,535.589,528.5,544.589" style="stroke:#A80036;stroke-width:1.0;"/><line style="stroke:#A80036;stroke-width:1.0;" x1="528.5" x2="528.5" y1="539.589" y2="531.589"/><polygon fill="#A80036" points="528.5,466.054,524.5,472.054,528.5,478.054,532.5,472.054,528.5,466.054" style="stroke:#A80036;stroke-width:1.0;"/><text fill="#000000" font-family="sans-serif" font-size="13" lengthAdjust="spacingAndGlyphs" textLength="8" x="520.0375" y="485.9381">1</text><text fill="#000000" font-family="sans-serif" font-size="13" lengthAdjust="spacingAndGlyphs" textLength="8" x="519.675" y="533.7675">1</text><!--MD5=[1d5ee9cee7b002b680a5b71cf918a623]
reverse link Humidite to Tuile--><path codeLine="124" d="M453.308,406 C463.294,406 473.281,406 483.267,406 " fill="none" id="Humidite-backto-Tuile" style="stroke:#A80036;stroke-width:1.0;"/><polygon fill="#A80036" points="448.086,406,457.086,410,453.086,406,457.086,402,448.086,406" style="stroke:#A80036;stroke-width:1.0;"/><text fill="#000000" font-family="sans-serif" font-size="13" lengthAdjust="spacingAndGlyphs" textLength="8" x="456.1319" y="402.206">1</text><text fill="#000000" font-family="sans-serif" font-size="13" lengthAdjust="spacingAndGlyphs" textLength="8" x="467.4205" y="401.8803">1</text><!--MD5=[f2a5ebded53ab20988874935fe27f5f5]
link Tuile to Altitude--><path codeLine="125" d="M573.547,406 C583.527,406 593.507,406 603.487,406 " fill="none" id="Tuile-to-Altitude" style="stroke:#A80036;stroke-width:1.0;"/><polygon fill="#A80036" points="608.706,406,599.706,402,603.706,406,599.706,410,608.706,406" style="stroke:#A80036;stroke-width:1.0;"/><text fill="#000000" font-family="sans-serif" font-size="13" lengthAdjust="spacingAndGlyphs" textLength="8" x="581.3639" y="401.8803">1</text><text fill="#000000" font-family="sans-serif" font-size="13" lengthAdjust="spacingAndGlyphs" textLength="8" x="593.0888" y="401.8977">1</text><!--MD5=[1e1ce3599829bc0f22886805d3d3df03]
reverse link GestionAltitude to Terrain--><path codeLine="126" d="M122.798,176.583 C141.595,158.701 165.365,140.378 191,131 C256.739,106.95 442.119,102.378 506,131 C522.103,138.215 536.354,150.298 548.288,163.391 " fill="none" id="GestionAltitude-backto-Terrain" style="stroke:#A80036;stroke-width:1.0;"/><polygon fill="#A80036" points="119.106,180.15,128.3577,176.7728,122.7017,176.6757,122.7989,171.0197,119.106,180.15" style="stroke:#A80036;stroke-width:1.0;"/><!--MD5=[05b284d5909ea975c287395e1549ec91]
reverse link GestionAquifere to Terrain--><path codeLine="127" d="M310.456,176.797 C329.66,158.841 353.938,140.403 380,131 C432.676,111.994 454.895,108.102 506,131 C522.103,138.215 536.354,150.298 548.288,163.391 " fill="none" id="GestionAquifere-backto-Terrain" style="stroke:#A80036;stroke-width:1.0;"/><polygon fill="#A80036" points="306.684,180.379,315.9647,177.0824,310.3098,176.9361,310.4561,171.2811,306.684,180.379" style="stroke:#A80036;stroke-width:1.0;"/><!--MD5=[ba5fffaca03c0b645a2a47f14317e11e]
reverse link GestionColorier to Terrain--><path codeLine="128" d="M511.875,223.5 C521.857,223.5 531.84,223.5 541.822,223.5 " fill="none" id="GestionColorier-backto-Terrain" style="stroke:#A80036;stroke-width:1.0;"/><polygon fill="#A80036" points="506.654,223.5,515.654,227.5,511.654,223.5,515.654,219.5,506.654,223.5" style="stroke:#A80036;stroke-width:1.0;"/><!--MD5=[505ff617d0b1e129802d87db96eef9cc]
link Terrain to Tuile--><path codeLine="129" d="M565.0684,294.9892 C565.0684,294.9892 556.434,320.966 552.363,333.213 " fill="none" id="Terrain-Tuile" style="stroke:#A80036;stroke-width:1.0;"/><polygon fill="#A80036" points="548.19,345.765,554.825,338.4865,549.7673,341.0203,547.2335,335.9627,548.19,345.765" style="stroke:#A80036;stroke-width:1.0;"/><line style="stroke:#A80036;stroke-width:1.0;" x1="549.7673" x2="552.291" y1="341.0203" y2="333.4285"/><polygon fill="#A80036" points="568.854,283.602,563.1654,288.0337,565.0684,294.9892,570.7569,290.5575,568.854,283.602" style="stroke:#A80036;stroke-width:1.0;"/><text fill="#000000" font-family="sans-serif" font-size="13" lengthAdjust="spacingAndGlyphs" textLength="8" x="558.1199" y="303.4917">1</text><text fill="#000000" font-family="sans-serif" font-size="13" lengthAdjust="spacingAndGlyphs" textLength="7" x="543.062" y="335.0064">*</text><!--MD5=[201c1934297097c92fbf80724f1b440f]
link Terrain to Shape--><path codeLine="130" d="M647.172,223.5 C647.172,223.5 694.41,223.5 717.498,223.5 " fill="none" id="Terrain-Shape" style="stroke:#A80036;stroke-width:1.0;"/><polygon fill="#A80036" points="730.707,223.5,721.707,219.5,725.707,223.5,721.707,227.5,730.707,223.5" style="stroke:#A80036;stroke-width:1.0;"/><line style="stroke:#A80036;stroke-width:1.0;" x1="725.707" x2="717.7065" y1="223.5" y2="223.5"/><polygon fill="#A80036" points="635.172,223.5,641.172,227.5,647.172,223.5,641.172,219.5,635.172,223.5" style="stroke:#A80036;stroke-width:1.0;"/><text fill="#000000" font-family="sans-serif" font-size="13" lengthAdjust="spacingAndGlyphs" textLength="8" x="642.9312" y="219.4268">1</text><text fill="#000000" font-family="sans-serif" font-size="13" lengthAdjust="spacingAndGlyphs" textLength="7" x="715.9262" y="219.7187">*</text><!--MD5=[d0defea2c8e61d95b079a94e95a20fd2]
link Biome to Color--><path codeLine="131" d="M578.562,575.5 C578.562,575.5 585.784,575.5 588.773,575.5 " fill="none" id="Biome-Color" style="stroke:#A80036;stroke-width:1.0;"/><polygon fill="#A80036" points="601.878,575.5,592.878,571.5,596.878,575.5,592.878,579.5,601.878,575.5" style="stroke:#A80036;stroke-width:1.0;"/><line style="stroke:#A80036;stroke-width:1.0;" x1="596.878" x2="588.878" y1="575.5" y2="575.5"/><polygon fill="#A80036" points="566.562,575.5,572.562,579.5,578.562,575.5,572.562,571.5,566.562,575.5" style="stroke:#A80036;stroke-width:1.0;"/><text fill="#000000" font-family="sans-serif" font-size="13" lengthAdjust="spacingAndGlyphs" textLength="8" x="574.5801" y="571.1685">1</text><text fill="#000000" font-family="sans-serif" font-size="13" lengthAdjust="spacingAndGlyphs" textLength="8" x="585.8648" y="571.2704">1</text><!--MD5=[776342dc73c4c1559fd74d4c5ae140a0]
reverse link Biome to OceanBiome--><path codeLine="132" d="M576.095,618.854 C578.895,620.988 581.708,623.052 584.5,625 C618.624,648.8116 659.679,671.435 691.921,687.9792 " fill="none" id="Biome-backto-OceanBiome" style="stroke:#A80036;stroke-width:1.0;"/><polygon fill="none" points="571.568,624.195,560.437,606.164,580.382,613.318,571.568,624.195" style="stroke:#A80036;stroke-width:1.0;"/><!--MD5=[f685a746fc5269136dfa0aac5769910e]
reverse link Biome to PlageBiome--><path codeLine="133" d="M554.851,623.727 C566.178,644.027 579.067,667.1274 589.009,684.9445 " fill="none" id="Biome-backto-PlageBiome" style="stroke:#A80036;stroke-width:1.0;"/><polygon fill="none" points="548.651,626.98,545.018,606.104,560.876,620.159,548.651,626.98" style="stroke:#A80036;stroke-width:1.0;"/><!--MD5=[819fe04ad92c819240a99721607db021]
reverse link Biome to VegetationBiome--><path codeLine="134" d="M502.149,623.727 C490.822,644.027 477.933,667.1274 467.991,684.9445 " fill="none" id="Biome-backto-VegetationBiome" style="stroke:#A80036;stroke-width:1.0;"/><polygon fill="none" points="496.124,620.159,511.982,606.104,508.349,626.98,496.124,620.159" style="stroke:#A80036;stroke-width:1.0;"/><!--MD5=[5791d3782d944687fdbcfd6b0b07425f]
reverse link Biome to LagonBiome--><path codeLine="135" d="M472.933,609.411 C434.21,632.345 382.988,662.6828 345.537,684.8644 " fill="none" id="Biome-backto-LagonBiome" style="stroke:#A80036;stroke-width:1.0;"/><polygon fill="none" points="469.51,603.303,490.286,599.133,476.645,615.348,469.51,603.303" style="stroke:#A80036;stroke-width:1.0;"/><!--MD5=[7d83eaea4da7da1f38fc7ad98122c467]
reverse link Shape to Tortuga--><path codeLine="136" d="M794.5,274.61 C794.5,307.039 794.5,348.15 794.5,375.45 " fill="none" id="Shape-backto-Tortuga" style="stroke:#A80036;stroke-width:1.0;"/><polygon fill="none" points="787.5,274.306,794.5,254.306,801.5,274.306,787.5,274.306" style="stroke:#A80036;stroke-width:1.0;"/><!--MD5=[f4a7ab38210eda5c57339216cd67cf05]
reverse link Shape to Atoll--><path codeLine="137" d="M834.947,269.565 C864.661,302.673 904.187,346.713 929.979,375.45 " fill="none" id="Shape-backto-Atoll" style="stroke:#A80036;stroke-width:1.0;"/><polygon fill="none" points="829.4,273.866,821.251,254.306,839.819,264.515,829.4,273.866" style="stroke:#A80036;stroke-width:1.0;"/><!--MD5=[5eff464be6fb8f6a9144ef046563f208]
@startuml
class Ile
{
    - -
    + Ile()
    - -
    + {method} ileTotalementIndependante()
    + {method} collisionEntreIles()
}

class Terrain
{
    - int height
    - int width
    - -
    + Terrain()
    - -
    + {method} colorier()
    + {method} getBuilder()
}

abstract class Shape
{
    - definitionTerrain()
}

class Tortuga
{
    - definitionTerrain()
}

class Atoll
{
    - definitionTerrain()
}

class Tuile
{
    - Polygon p
    - Biome b
    - -
    + {method} Tuile()
    - -
    + {method} getBiome()
    + {method} setBiome()
}

class GestionAltitude
{
    + {method} GestionAltitude()
    - -
    + {method} altitudeMaximale()
    + {method} propragationAltitude()
}

class GestionAquifere
{
     + {method} GestionAquifere()
     - -
     + {method} placerAquifere()
     + {method} propragationAquifere()
}

class GestionColorier
{
     + {method} GestionColorier()
     - -
     + {method} colorier()
     + {method} colorierAltitude()
     + {method} colorierAquifere()
     + {method} colorierBase()
     + {method} colorierOcean()
}

class Altitude
{
  - int altitude
}

enum Humidite
{
    DRY
    REGULAR
    WET
    - -
    + {method} getCouleur()
    + {method} getNextHumidite()
}

abstract class Biome
{
    - colorier()
}

class LagonBiome
{
    - colorier()
}

class VegetationBiome
{
    - colorier()
}

class PlageBiome
{
    - colorier()
}

class OceanBiome
{
    - colorier()
}

enum Color
{
    VERT
    BLEU_FONCE
    BLEU_CLAIR
    JAUNE
}

Ile "1" *- -> "*" Terrain
Tuile "1" *- -> "1" Biome
Humidite "1" <- "1" Tuile
Tuile "1" -> "1" Altitude
GestionAltitude <- Terrain
GestionAquifere <- Terrain
GestionColorier <- Terrain
Terrain "1" *- -> "*" Tuile
Terrain "1" *-> "*" Shape
Biome "1" *-> "1" Color
Biome <|- - OceanBiome
Biome <|- - PlageBiome
Biome <|- - VegetationBiome
Biome <|- - LagonBiome
Shape <|- - Tortuga
Shape <|- - Atoll
@enduml

PlantUML version 1.2020.23beta3(Unknown compile time)
(GPL source distribution)
Java Runtime: Java(TM) SE Runtime Environment
JVM: Java HotSpot(TM) 64-Bit Server VM
Default Encoding: UTF-8
Language: en
Country: US
--></g></svg>