<?xml version="1.0" encoding="UTF-8" standalone="no"?><svg xmlns="http://www.w3.org/2000/svg" xmlns:xlink="http://www.w3.org/1999/xlink" contentScriptType="application/ecmascript" contentStyleType="text/css" height="999px" preserveAspectRatio="none" style="width:1599px;height:999px;" version="1.1" viewBox="0 0 1599 999" width="1599px" zoomAndPan="magnify"><defs><filter height="300%" id="f1jo266zckisms" width="300%" x="-1" y="-1"><feGaussianBlur result="blurOut" stdDeviation="2.0"/><feColorMatrix in="blurOut" result="blurOut2" type="matrix" values="0 0 0 0 0 0 0 0 0 0 0 0 0 0 0 0 0 0 .4 0"/><feOffset dx="4.0" dy="4.0" in="blurOut2" result="blurOut3"/><feBlend in="SourceGraphic" in2="blurOut3" mode="normal"/></filter></defs><g><rect fill="#FFFFFF" filter="url(#f1jo266zckisms)" height="275.9297" style="stroke:#A80036;stroke-width:1.0;" width="10" x="332.5" y="307.3594"/><rect fill="#FFFFFF" filter="url(#f1jo266zckisms)" height="14" style="stroke:#A80036;stroke-width:1.0;" width="10" x="404" y="240.0938"/><rect fill="#FFFFFF" filter="url(#f1jo266zckisms)" height="57.1328" style="stroke:#A80036;stroke-width:1.0;" width="10" x="551" y="418.8906"/><rect fill="#FFFFFF" filter="url(#f1jo266zckisms)" height="57.1328" style="stroke:#A80036;stroke-width:1.0;" width="10" x="692.5" y="505.1563"/><rect fill="#FFFFFF" filter="url(#f1jo266zckisms)" height="230.0781" style="stroke:#A80036;stroke-width:1.0;" width="10" x="833.5" y="650.5547"/><rect fill="#FFFFFF" filter="url(#f1jo266zckisms)" height="101.3984" style="stroke:#000000;stroke-width:2.0;" width="417" x="153" y="86.4297"/><rect fill="#FFFFFF" filter="url(#f1jo266zckisms)" height="396.4609" style="stroke:#000000;stroke-width:2.0;" width="898.5" x="143" y="201.8281"/><rect fill="#FFFFFF" filter="url(#f1jo266zckisms)" height="322.1953" style="stroke:#000000;stroke-width:2.0;" width="878.5" x="153" y="269.0938"/><rect fill="#FFFFFF" filter="url(#f1jo266zckisms)" height="247.9297" style="stroke:#000000;stroke-width:2.0;" width="728.5" x="293" y="322.3594"/><rect fill="#FFFFFF" filter="url(#f1jo266zckisms)" height="244.0781" style="stroke:#000000;stroke-width:2.0;" width="692.5" x="293" y="665.5547"/><rect fill="#FFFFFF" height="56.9375" style="stroke:none;stroke-width:1.0;" width="692.5" x="293" y="724.8203"/><rect fill="#FFFFFF" height="56.9375" style="stroke:none;stroke-width:1.0;" width="692.5" x="293" y="781.7578"/><rect fill="#FFFFFF" height="70.9375" style="stroke:none;stroke-width:1.0;" width="692.5" x="293" y="838.6953"/><line style="stroke:#A80036;stroke-width:1.0;stroke-dasharray:5.0,5.0;" x1="44" x2="44" y1="40.2969" y2="955.7656"/><line style="stroke:#A80036;stroke-width:1.0;stroke-dasharray:5.0,5.0;" x1="188" x2="188" y1="40.2969" y2="955.7656"/><line style="stroke:#A80036;stroke-width:1.0;stroke-dasharray:5.0,5.0;" x1="337" x2="337" y1="40.2969" y2="955.7656"/><line style="stroke:#A80036;stroke-width:1.0;stroke-dasharray:5.0,5.0;" x1="409" x2="409" y1="40.2969" y2="955.7656"/><line style="stroke:#A80036;stroke-width:1.0;stroke-dasharray:5.0,5.0;" x1="463" x2="463" y1="40.2969" y2="955.7656"/><line style="stroke:#A80036;stroke-width:1.0;stroke-dasharray:5.0,5.0;" x1="556" x2="556" y1="40.2969" y2="955.7656"/><line style="stroke:#A80036;stroke-width:1.0;stroke-dasharray:5.0,5.0;" x1="697" x2="697" y1="40.2969" y2="955.7656"/><line style="stroke:#A80036;stroke-width:1.0;stroke-dasharray:5.0,5.0;" x1="838" x2="838" y1="40.2969" y2="955.7656"/><line style="stroke:#A80036;stroke-width:1.0;stroke-dasharray:5.0,5.0;" x1="985.5" x2="985.5" y1="40.2969" y2="955.7656"/><line style="stroke:#A80036;stroke-width:1.0;stroke-dasharray:5.0,5.0;" x1="1053.5" x2="1053.5" y1="40.2969" y2="955.7656"/><line style="stroke:#A80036;stroke-width:1.0;stroke-dasharray:5.0,5.0;" x1="1149.5" x2="1149.5" y1="40.2969" y2="955.7656"/><line style="stroke:#A80036;stroke-width:1.0;stroke-dasharray:5.0,5.0;" x1="1265.5" x2="1265.5" y1="40.2969" y2="955.7656"/><line style="stroke:#A80036;stroke-width:1.0;stroke-dasharray:5.0,5.0;" x1="1399.5" x2="1399.5" y1="40.2969" y2="955.7656"/><line style="stroke:#A80036;stroke-width:1.0;stroke-dasharray:5.0,5.0;" x1="1535.5" x2="1535.5" y1="40.2969" y2="955.7656"/><rect fill="#FEFECE" filter="url(#f1jo266zckisms)" height="30.2969" style="stroke:#A80036;stroke-width:1.5;" width="45" x="20" y="5"/><text fill="#000000" font-family="sans-serif" font-size="14" lengthAdjust="spacingAndGlyphs" textLength="31" x="27" y="24.9951">User</text><rect fill="#FEFECE" filter="url(#f1jo266zckisms)" height="30.2969" style="stroke:#A80036;stroke-width:1.5;" width="45" x="20" y="954.7656"/><text fill="#000000" font-family="sans-serif" font-size="14" lengthAdjust="spacingAndGlyphs" textLength="31" x="27" y="974.7607">User</text><rect fill="#FEFECE" filter="url(#f1jo266zckisms)" height="30.2969" style="stroke:#A80036;stroke-width:1.5;" width="47" x="163" y="5"/><text fill="#000000" font-family="sans-serif" font-size="14" lengthAdjust="spacingAndGlyphs" textLength="33" x="170" y="24.9951">Main</text><rect fill="#FEFECE" filter="url(#f1jo266zckisms)" height="30.2969" style="stroke:#A80036;stroke-width:1.5;" width="47" x="163" y="954.7656"/><text fill="#000000" font-family="sans-serif" font-size="14" lengthAdjust="spacingAndGlyphs" textLength="33" x="170" y="974.7607">Main</text><rect fill="#FEFECE" filter="url(#f1jo266zckisms)" height="30.2969" style="stroke:#A80036;stroke-width:1.5;" width="65" x="303" y="5"/><text fill="#000000" font-family="sans-serif" font-size="14" lengthAdjust="spacingAndGlyphs" textLength="51" x="310" y="24.9951">Terrain</text><rect fill="#FEFECE" filter="url(#f1jo266zckisms)" height="30.2969" style="stroke:#A80036;stroke-width:1.5;" width="65" x="303" y="954.7656"/><text fill="#000000" font-family="sans-serif" font-size="14" lengthAdjust="spacingAndGlyphs" textLength="51" x="310" y="974.7607">Terrain</text><rect fill="#FEFECE" filter="url(#f1jo266zckisms)" height="30.2969" style="stroke:#A80036;stroke-width:1.5;" width="50" x="382" y="5"/><text fill="#000000" font-family="sans-serif" font-size="14" lengthAdjust="spacingAndGlyphs" textLength="36" x="389" y="24.9951">Seed</text><rect fill="#FEFECE" filter="url(#f1jo266zckisms)" height="30.2969" style="stroke:#A80036;stroke-width:1.5;" width="50" x="382" y="954.7656"/><text fill="#000000" font-family="sans-serif" font-size="14" lengthAdjust="spacingAndGlyphs" textLength="36" x="389" y="974.7607">Seed</text><rect fill="#FEFECE" filter="url(#f1jo266zckisms)" height="30.2969" style="stroke:#A80036;stroke-width:1.5;" width="31" x="446" y="5"/><text fill="#000000" font-family="sans-serif" font-size="14" lengthAdjust="spacingAndGlyphs" textLength="17" x="453" y="24.9951">Ile</text><rect fill="#FEFECE" filter="url(#f1jo266zckisms)" height="30.2969" style="stroke:#A80036;stroke-width:1.5;" width="31" x="446" y="954.7656"/><text fill="#000000" font-family="sans-serif" font-size="14" lengthAdjust="spacingAndGlyphs" textLength="17" x="453" y="974.7607">Ile</text><rect fill="#FEFECE" filter="url(#f1jo266zckisms)" height="30.2969" style="stroke:#A80036;stroke-width:1.5;" width="126" x="491" y="5"/><text fill="#000000" font-family="sans-serif" font-size="14" lengthAdjust="spacingAndGlyphs" textLength="112" x="498" y="24.9951">gestionAltitude</text><rect fill="#FEFECE" filter="url(#f1jo266zckisms)" height="30.2969" style="stroke:#A80036;stroke-width:1.5;" width="126" x="491" y="954.7656"/><text fill="#000000" font-family="sans-serif" font-size="14" lengthAdjust="spacingAndGlyphs" textLength="112" x="498" y="974.7607">gestionAltitude</text><rect fill="#FEFECE" filter="url(#f1jo266zckisms)" height="30.2969" style="stroke:#A80036;stroke-width:1.5;" width="129" x="631" y="5"/><text fill="#000000" font-family="sans-serif" font-size="14" lengthAdjust="spacingAndGlyphs" textLength="115" x="638" y="24.9951">gestionAquifere</text><rect fill="#FEFECE" filter="url(#f1jo266zckisms)" height="30.2969" style="stroke:#A80036;stroke-width:1.5;" width="129" x="631" y="954.7656"/><text fill="#000000" font-family="sans-serif" font-size="14" lengthAdjust="spacingAndGlyphs" textLength="115" x="638" y="974.7607">gestionAquifere</text><rect fill="#FEFECE" filter="url(#f1jo266zckisms)" height="30.2969" style="stroke:#A80036;stroke-width:1.5;" width="125" x="774" y="5"/><text fill="#000000" font-family="sans-serif" font-size="14" lengthAdjust="spacingAndGlyphs" textLength="111" x="781" y="24.9951">gestionColorier</text><rect fill="#FEFECE" filter="url(#f1jo266zckisms)" height="30.2969" style="stroke:#A80036;stroke-width:1.5;" width="125" x="774" y="954.7656"/><text fill="#000000" font-family="sans-serif" font-size="14" lengthAdjust="spacingAndGlyphs" textLength="111" x="781" y="974.7607">gestionColorier</text><rect fill="#FEFECE" filter="url(#f1jo266zckisms)" height="30.2969" style="stroke:#A80036;stroke-width:1.5;" width="48" x="959.5" y="5"/><text fill="#000000" font-family="sans-serif" font-size="14" lengthAdjust="spacingAndGlyphs" textLength="34" x="966.5" y="24.9951">Tuile</text><rect fill="#FEFECE" filter="url(#f1jo266zckisms)" height="30.2969" style="stroke:#A80036;stroke-width:1.5;" width="48" x="959.5" y="954.7656"/><text fill="#000000" font-family="sans-serif" font-size="14" lengthAdjust="spacingAndGlyphs" textLength="34" x="966.5" y="974.7607">Tuile</text><rect fill="#FEFECE" filter="url(#f1jo266zckisms)" height="30.2969" style="stroke:#A80036;stroke-width:1.5;" width="60" x="1021.5" y="5"/><text fill="#000000" font-family="sans-serif" font-size="14" lengthAdjust="spacingAndGlyphs" textLength="46" x="1028.5" y="24.9951">Biome</text><rect fill="#FEFECE" filter="url(#f1jo266zckisms)" height="30.2969" style="stroke:#A80036;stroke-width:1.5;" width="60" x="1021.5" y="954.7656"/><text fill="#000000" font-family="sans-serif" font-size="14" lengthAdjust="spacingAndGlyphs" textLength="46" x="1028.5" y="974.7607">Biome</text><rect fill="#FEFECE" filter="url(#f1jo266zckisms)" height="30.2969" style="stroke:#A80036;stroke-width:1.5;" width="105" x="1095.5" y="5"/><text fill="#000000" font-family="sans-serif" font-size="14" lengthAdjust="spacingAndGlyphs" textLength="91" x="1102.5" y="24.9951">OceanBiome</text><rect fill="#FEFECE" filter="url(#f1jo266zckisms)" height="30.2969" style="stroke:#A80036;stroke-width:1.5;" width="105" x="1095.5" y="954.7656"/><text fill="#000000" font-family="sans-serif" font-size="14" lengthAdjust="spacingAndGlyphs" textLength="91" x="1102.5" y="974.7607">OceanBiome</text><rect fill="#FEFECE" filter="url(#f1jo266zckisms)" height="30.2969" style="stroke:#A80036;stroke-width:1.5;" width="99" x="1214.5" y="5"/><text fill="#000000" font-family="sans-serif" font-size="14" lengthAdjust="spacingAndGlyphs" textLength="85" x="1221.5" y="24.9951">PlageBiome</text><rect fill="#FEFECE" filter="url(#f1jo266zckisms)" height="30.2969" style="stroke:#A80036;stroke-width:1.5;" width="99" x="1214.5" y="954.7656"/><text fill="#000000" font-family="sans-serif" font-size="14" lengthAdjust="spacingAndGlyphs" textLength="85" x="1221.5" y="974.7607">PlageBiome</text><rect fill="#FEFECE" filter="url(#f1jo266zckisms)" height="30.2969" style="stroke:#A80036;stroke-width:1.5;" width="141" x="1327.5" y="5"/><text fill="#000000" font-family="sans-serif" font-size="14" lengthAdjust="spacingAndGlyphs" textLength="127" x="1334.5" y="24.9951">VegetationBiome</text><rect fill="#FEFECE" filter="url(#f1jo266zckisms)" height="30.2969" style="stroke:#A80036;stroke-width:1.5;" width="141" x="1327.5" y="954.7656"/><text fill="#000000" font-family="sans-serif" font-size="14" lengthAdjust="spacingAndGlyphs" textLength="127" x="1334.5" y="974.7607">VegetationBiome</text><rect fill="#FEFECE" filter="url(#f1jo266zckisms)" height="30.2969" style="stroke:#A80036;stroke-width:1.5;" width="103" x="1482.5" y="5"/><text fill="#000000" font-family="sans-serif" font-size="14" lengthAdjust="spacingAndGlyphs" textLength="89" x="1489.5" y="24.9951">LagonBiome</text><rect fill="#FEFECE" filter="url(#f1jo266zckisms)" height="30.2969" style="stroke:#A80036;stroke-width:1.5;" width="103" x="1482.5" y="954.7656"/><text fill="#000000" font-family="sans-serif" font-size="14" lengthAdjust="spacingAndGlyphs" textLength="89" x="1489.5" y="974.7607">LagonBiome</text><rect fill="#FFFFFF" filter="url(#f1jo266zckisms)" height="275.9297" style="stroke:#A80036;stroke-width:1.0;" width="10" x="332.5" y="307.3594"/><rect fill="#FFFFFF" filter="url(#f1jo266zckisms)" height="14" style="stroke:#A80036;stroke-width:1.0;" width="10" x="404" y="240.0938"/><rect fill="#FFFFFF" filter="url(#f1jo266zckisms)" height="57.1328" style="stroke:#A80036;stroke-width:1.0;" width="10" x="551" y="418.8906"/><rect fill="#FFFFFF" filter="url(#f1jo266zckisms)" height="57.1328" style="stroke:#A80036;stroke-width:1.0;" width="10" x="692.5" y="505.1563"/><rect fill="#FFFFFF" filter="url(#f1jo266zckisms)" height="230.0781" style="stroke:#A80036;stroke-width:1.0;" width="10" x="833.5" y="650.5547"/><polygon fill="#A80036" points="176.5,67.4297,186.5,71.4297,176.5,75.4297,180.5,71.4297" style="stroke:#A80036;stroke-width:1.0;"/><line style="stroke:#A80036;stroke-width:1.0;" x1="44.5" x2="182.5" y1="71.4297" y2="71.4297"/><text fill="#000000" font-family="sans-serif" font-size="13" lengthAdjust="spacingAndGlyphs" textLength="120" x="51.5" y="66.3638">main(string[] args)</text><path d="M153,86.4297 L565,86.4297 L565,93.4297 L555,103.4297 L153,103.4297 L153,86.4297 " fill="#EEEEEE" style="stroke:#000000;stroke-width:1.0;"/><rect fill="none" height="101.3984" style="stroke:#000000;stroke-width:2.0;" width="417" x="153" y="86.4297"/><text fill="#000000" font-family="sans-serif" font-size="13" font-weight="bold" lengthAdjust="spacingAndGlyphs" textLength="367" x="168" y="99.4966">prépare les settings de base du mesh à produire</text><line style="stroke:#A80036;stroke-width:1.0;" x1="188.5" x2="230.5" y1="124.6953" y2="124.6953"/><line style="stroke:#A80036;stroke-width:1.0;" x1="230.5" x2="230.5" y1="124.6953" y2="137.6953"/><line style="stroke:#A80036;stroke-width:1.0;" x1="189.5" x2="230.5" y1="137.6953" y2="137.6953"/><polygon fill="#A80036" points="199.5,133.6953,189.5,137.6953,199.5,141.6953,195.5,137.6953" style="stroke:#A80036;stroke-width:1.0;"/><text fill="#000000" font-family="sans-serif" font-size="13" lengthAdjust="spacingAndGlyphs" textLength="70" x="195.5" y="119.6294">configure()</text><line style="stroke:#A80036;stroke-width:1.0;" x1="188.5" x2="230.5" y1="166.8281" y2="166.8281"/><line style="stroke:#A80036;stroke-width:1.0;" x1="230.5" x2="230.5" y1="166.8281" y2="179.8281"/><line style="stroke:#A80036;stroke-width:1.0;" x1="189.5" x2="230.5" y1="179.8281" y2="179.8281"/><polygon fill="#A80036" points="199.5,175.8281,189.5,179.8281,199.5,183.8281,195.5,179.8281" style="stroke:#A80036;stroke-width:1.0;"/><text fill="#000000" font-family="sans-serif" font-size="13" lengthAdjust="spacingAndGlyphs" textLength="49" x="195.5" y="161.7622">enrich()</text><path d="M143,201.8281 L247,201.8281 L247,208.8281 L237,218.8281 L143,218.8281 L143,201.8281 " fill="#EEEEEE" style="stroke:#000000;stroke-width:1.0;"/><rect fill="none" height="396.4609" style="stroke:#000000;stroke-width:2.0;" width="898.5" x="143" y="201.8281"/><text fill="#000000" font-family="sans-serif" font-size="13" font-weight="bold" lengthAdjust="spacingAndGlyphs" textLength="59" x="158" y="214.895">process</text><path d="M1046.5,206.8281 L1046.5,261.8281 L1341.5,261.8281 L1341.5,216.8281 L1331.5,206.8281 L1046.5,206.8281 " fill="#FBFB77" filter="url(#f1jo266zckisms)" style="stroke:#A80036;stroke-width:1.0;"/><path d="M1331.5,206.8281 L1331.5,216.8281 L1341.5,216.8281 L1331.5,206.8281 " fill="#FBFB77" style="stroke:#A80036;stroke-width:1.0;"/><text fill="#000000" font-family="sans-serif" font-size="13" lengthAdjust="spacingAndGlyphs" textLength="274" x="1052.5" y="223.895">Un terrain avec le nombre d'île spécifié par</text><text fill="#000000" font-family="sans-serif" font-size="13" lengthAdjust="spacingAndGlyphs" textLength="231" x="1052.5" y="239.0278">l'utilisateur à la ligne de commande,</text><text fill="#000000" font-family="sans-serif" font-size="13" lengthAdjust="spacingAndGlyphs" textLength="270" x="1052.5" y="254.1606">généré selon le seed spécifié ou aléatoire.</text><polygon fill="#A80036" points="392,236.0938,402,240.0938,392,244.0938,396,240.0938" style="stroke:#A80036;stroke-width:1.0;"/><line style="stroke:#A80036;stroke-width:1.0;" x1="188.5" x2="398" y1="240.0938" y2="240.0938"/><text fill="#000000" font-family="sans-serif" font-size="13" lengthAdjust="spacingAndGlyphs" textLength="104" x="195.5" y="235.0278">new Seed(seed)</text><polygon fill="#A80036" points="199.5,250.0938,189.5,254.0938,199.5,258.0938,195.5,254.0938" style="stroke:#A80036;stroke-width:1.0;"/><line style="stroke:#A80036;stroke-width:1.0;" x1="193.5" x2="408" y1="254.0938" y2="254.0938"/><path d="M153,269.0938 L231,269.0938 L231,276.0938 L221,286.0938 L153,286.0938 L153,269.0938 " fill="#EEEEEE" style="stroke:#000000;stroke-width:1.0;"/><rect fill="none" height="322.1953" style="stroke:#000000;stroke-width:2.0;" width="878.5" x="153" y="269.0938"/><text fill="#000000" font-family="sans-serif" font-size="13" font-weight="bold" lengthAdjust="spacingAndGlyphs" textLength="33" x="168" y="282.1606">loop</text><text fill="#000000" font-family="sans-serif" font-size="11" font-weight="bold" lengthAdjust="spacingAndGlyphs" textLength="130" x="246" y="281.3042">[archipelago times]</text><polygon fill="#A80036" points="320.5,303.3594,330.5,307.3594,320.5,311.3594,324.5,307.3594" style="stroke:#A80036;stroke-width:1.0;"/><line style="stroke:#A80036;stroke-width:1.0;" x1="188.5" x2="326.5" y1="307.3594" y2="307.3594"/><text fill="#000000" font-family="sans-serif" font-size="13" lengthAdjust="spacingAndGlyphs" textLength="125" x="195.5" y="302.2935">new Terrain(shape)</text><path d="M293,322.3594 L371,322.3594 L371,329.3594 L361,339.3594 L293,339.3594 L293,322.3594 " fill="#EEEEEE" style="stroke:#000000;stroke-width:1.0;"/><rect fill="none" height="247.9297" style="stroke:#000000;stroke-width:2.0;" width="728.5" x="293" y="322.3594"/><text fill="#000000" font-family="sans-serif" font-size="13" font-weight="bold" lengthAdjust="spacingAndGlyphs" textLength="33" x="308" y="335.4263">loop</text><text fill="#000000" font-family="sans-serif" font-size="11" font-weight="bold" lengthAdjust="spacingAndGlyphs" textLength="177" x="386" y="334.5698">[getPolygonsCount times]</text><polygon fill="#A80036" points="973.5,356.625,983.5,360.625,973.5,364.625,977.5,360.625" style="stroke:#A80036;stroke-width:1.0;"/><line style="stroke:#A80036;stroke-width:1.0;" x1="342.5" x2="979.5" y1="360.625" y2="360.625"/><text fill="#000000" font-family="sans-serif" font-size="13" lengthAdjust="spacingAndGlyphs" textLength="71" x="349.5" y="355.5591">new Tuile()</text><polygon fill="#A80036" points="353.5,385.7578,343.5,389.7578,353.5,393.7578,349.5,389.7578" style="stroke:#A80036;stroke-width:1.0;"/><line style="stroke:#A80036;stroke-width:1.0;" x1="347.5" x2="984.5" y1="389.7578" y2="389.7578"/><text fill="#000000" font-family="sans-serif" font-size="13" lengthAdjust="spacingAndGlyphs" textLength="30" x="359.5" y="384.6919">Tuile</text><polygon fill="#A80036" points="539,414.8906,549,418.8906,539,422.8906,543,418.8906" style="stroke:#A80036;stroke-width:1.0;"/><line style="stroke:#A80036;stroke-width:1.0;" x1="342.5" x2="545" y1="418.8906" y2="418.8906"/><text fill="#000000" font-family="sans-serif" font-size="13" lengthAdjust="spacingAndGlyphs" textLength="185" x="349.5" y="413.8247">new gestionAltitude(altitude)</text><polygon fill="#A80036" points="973.5,444.0234,983.5,448.0234,973.5,452.0234,977.5,448.0234" style="stroke:#A80036;stroke-width:1.0;"/><line style="stroke:#A80036;stroke-width:1.0;" x1="561" x2="979.5" y1="448.0234" y2="448.0234"/><text fill="#000000" font-family="sans-serif" font-size="13" lengthAdjust="spacingAndGlyphs" textLength="79" x="568" y="442.9575">setAltitude()</text><polygon fill="#A80036" points="572,458.0234,562,462.0234,572,466.0234,568,462.0234" style="stroke:#A80036;stroke-width:1.0;"/><line style="stroke:#A80036;stroke-width:1.0;" x1="566" x2="984.5" y1="462.0234" y2="462.0234"/><polygon fill="#A80036" points="353.5,472.0234,343.5,476.0234,353.5,480.0234,349.5,476.0234" style="stroke:#A80036;stroke-width:1.0;"/><line style="stroke:#A80036;stroke-width:1.0;" x1="347.5" x2="555" y1="476.0234" y2="476.0234"/><polygon fill="#A80036" points="680.5,501.1563,690.5,505.1563,680.5,509.1563,684.5,505.1563" style="stroke:#A80036;stroke-width:1.0;"/><line style="stroke:#A80036;stroke-width:1.0;" x1="342.5" x2="686.5" y1="505.1563" y2="505.1563"/><text fill="#000000" font-family="sans-serif" font-size="13" lengthAdjust="spacingAndGlyphs" textLength="208" x="349.5" y="500.0903">new gestionAquifere(water, soil)</text><polygon fill="#A80036" points="973.5,530.2891,983.5,534.2891,973.5,538.2891,977.5,534.2891" style="stroke:#A80036;stroke-width:1.0;"/><line style="stroke:#A80036;stroke-width:1.0;" x1="702.5" x2="979.5" y1="534.2891" y2="534.2891"/><text fill="#000000" font-family="sans-serif" font-size="13" lengthAdjust="spacingAndGlyphs" textLength="87" x="709.5" y="529.2231">setHumitide()</text><polygon fill="#A80036" points="713.5,544.2891,703.5,548.2891,713.5,552.2891,709.5,548.2891" style="stroke:#A80036;stroke-width:1.0;"/><line style="stroke:#A80036;stroke-width:1.0;" x1="707.5" x2="984.5" y1="548.2891" y2="548.2891"/><polygon fill="#A80036" points="353.5,558.2891,343.5,562.2891,353.5,566.2891,349.5,562.2891" style="stroke:#A80036;stroke-width:1.0;"/><line style="stroke:#A80036;stroke-width:1.0;" x1="347.5" x2="696.5" y1="562.2891" y2="562.2891"/><polygon fill="#A80036" points="199.5,579.2891,189.5,583.2891,199.5,587.2891,195.5,583.2891" style="stroke:#A80036;stroke-width:1.0;"/><line style="stroke:#A80036;stroke-width:1.0;" x1="193.5" x2="336.5" y1="583.2891" y2="583.2891"/><polygon fill="#A80036" points="821.5,646.5547,831.5,650.5547,821.5,654.5547,825.5,650.5547" style="stroke:#A80036;stroke-width:1.0;"/><line style="stroke:#A80036;stroke-width:1.0;" x1="337.5" x2="827.5" y1="650.5547" y2="650.5547"/><text fill="#000000" font-family="sans-serif" font-size="13" lengthAdjust="spacingAndGlyphs" textLength="195" x="344.5" y="645.4888">new gestionColorier(heatmap)</text><path d="M293,665.5547 L359,665.5547 L359,672.5547 L349,682.5547 L293,682.5547 L293,665.5547 " fill="#EEEEEE" style="stroke:#000000;stroke-width:1.0;"/><rect fill="none" height="244.0781" style="stroke:#000000;stroke-width:2.0;" width="692.5" x="293" y="665.5547"/><text fill="#000000" font-family="sans-serif" font-size="13" font-weight="bold" lengthAdjust="spacingAndGlyphs" textLength="21" x="308" y="678.6216">alt</text><text fill="#000000" font-family="sans-serif" font-size="11" font-weight="bold" lengthAdjust="spacingAndGlyphs" textLength="144" x="374" y="677.7651">[heatmap = humidity]</text><line style="stroke:#A80036;stroke-width:1.0;" x1="843.5" x2="885.5" y1="703.8203" y2="703.8203"/><line style="stroke:#A80036;stroke-width:1.0;" x1="885.5" x2="885.5" y1="703.8203" y2="716.8203"/><line style="stroke:#A80036;stroke-width:1.0;" x1="844.5" x2="885.5" y1="716.8203" y2="716.8203"/><polygon fill="#A80036" points="854.5,712.8203,844.5,716.8203,854.5,720.8203,850.5,716.8203" style="stroke:#A80036;stroke-width:1.0;"/><text fill="#000000" font-family="sans-serif" font-size="13" lengthAdjust="spacingAndGlyphs" textLength="114" x="850.5" y="698.7544">colorierHumidite()</text><line style="stroke:#000000;stroke-width:1.0;stroke-dasharray:2.0,2.0;" x1="293" x2="985.5" y1="725.8203" y2="725.8203"/><text fill="#000000" font-family="sans-serif" font-size="11" font-weight="bold" lengthAdjust="spacingAndGlyphs" textLength="140" x="298" y="736.0308">[heatmap = altitude]</text><line style="stroke:#A80036;stroke-width:1.0;" x1="843.5" x2="885.5" y1="760.7578" y2="760.7578"/><line style="stroke:#A80036;stroke-width:1.0;" x1="885.5" x2="885.5" y1="760.7578" y2="773.7578"/><line style="stroke:#A80036;stroke-width:1.0;" x1="844.5" x2="885.5" y1="773.7578" y2="773.7578"/><polygon fill="#A80036" points="854.5,769.7578,844.5,773.7578,854.5,777.7578,850.5,773.7578" style="stroke:#A80036;stroke-width:1.0;"/><text fill="#000000" font-family="sans-serif" font-size="13" lengthAdjust="spacingAndGlyphs" textLength="106" x="850.5" y="755.6919">colorierAltitude()</text><line style="stroke:#000000;stroke-width:1.0;stroke-dasharray:2.0,2.0;" x1="293" x2="985.5" y1="782.7578" y2="782.7578"/><text fill="#000000" font-family="sans-serif" font-size="11" font-weight="bold" lengthAdjust="spacingAndGlyphs" textLength="126" x="298" y="792.9683">[heatmap = ocean]</text><line style="stroke:#A80036;stroke-width:1.0;" x1="843.5" x2="885.5" y1="817.6953" y2="817.6953"/><line style="stroke:#A80036;stroke-width:1.0;" x1="885.5" x2="885.5" y1="817.6953" y2="830.6953"/><line style="stroke:#A80036;stroke-width:1.0;" x1="844.5" x2="885.5" y1="830.6953" y2="830.6953"/><polygon fill="#A80036" points="854.5,826.6953,844.5,830.6953,854.5,834.6953,850.5,830.6953" style="stroke:#A80036;stroke-width:1.0;"/><text fill="#000000" font-family="sans-serif" font-size="13" lengthAdjust="spacingAndGlyphs" textLength="98" x="850.5" y="812.6294">colorierOcean()</text><line style="stroke:#000000;stroke-width:1.0;stroke-dasharray:2.0,2.0;" x1="293" x2="985.5" y1="839.6953" y2="839.6953"/><text fill="#000000" font-family="sans-serif" font-size="11" font-weight="bold" lengthAdjust="spacingAndGlyphs" textLength="154" x="298" y="849.9058">[heatmap = oceanNoir]</text><line style="stroke:#A80036;stroke-width:1.0;" x1="843.5" x2="885.5" y1="879.6328" y2="879.6328"/><line style="stroke:#A80036;stroke-width:1.0;" x1="885.5" x2="885.5" y1="879.6328" y2="892.6328"/><line style="stroke:#A80036;stroke-width:1.0;" x1="838.5" x2="885.5" y1="892.6328" y2="892.6328"/><polygon fill="#A80036" points="848.5,888.6328,838.5,892.6328,848.5,896.6328,844.5,892.6328" style="stroke:#A80036;stroke-width:1.0;"/><text fill="#000000" font-family="sans-serif" font-size="13" lengthAdjust="spacingAndGlyphs" textLength="123" x="850.5" y="874.5669">colorierOceanNoir()</text><polygon fill="#A80036" points="348.5,897.6328,338.5,901.6328,348.5,905.6328,344.5,901.6328" style="stroke:#A80036;stroke-width:1.0;"/><line style="stroke:#A80036;stroke-width:1.0;" x1="342.5" x2="837.5" y1="901.6328" y2="901.6328"/><polygon fill="#A80036" points="55.5,933.7656,45.5,937.7656,55.5,941.7656,51.5,937.7656" style="stroke:#A80036;stroke-width:1.0;"/><line style="stroke:#A80036;stroke-width:1.0;" x1="49.5" x2="187.5" y1="937.7656" y2="937.7656"/><text fill="#000000" font-family="sans-serif" font-size="13" lengthAdjust="spacingAndGlyphs" textLength="93" x="61.5" y="932.6997">File &lt;x&gt;.mesh</text><!--MD5=[92f2b87ae8e65f26add2f1d82b4ebfa1]
@startuml
participant User
participant Main
participant Terrain
participant Seed
participant Ile
participant gestionAltitude
participant gestionAquifere
participant gestionColorier
participant Tuile
participant Biome
participant OceanBiome
participant PlageBiome
participant VegetationBiome
participant LagonBiome


/' Initialisation du processus de creation de terrain'/
User -> Main: main(string[] args)
group prépare les settings de base du mesh à produire
    Main -> Main: configure()
    Main -> Main: enrich()
end group
group process
    Main -> Seed: new Seed(seed)
    activate Seed
    Seed -> Main
    deactivate Seed

    loop archipelago times
        Main -> Terrain: new Terrain(shape)
        /'Création un terrain avec  X iles, Y tuile, selon la hauteur et largeur de la forme specifiee'/
        activate Terrain
        loop getPolygonsCount times
            Terrain -> Tuile: new Tuile()
            Tuile -> Terrain: Tuile
            Terrain -> gestionAltitude: new gestionAltitude(altitude)

'           ajout de la notion d'altitude sur les tuiles existantes
            activate gestionAltitude
                gestionAltitude -> Tuile: setAltitude()
                Tuile ->  gestionAltitude
                gestionAltitude -> Terrain
            deactivate gestionAltitude

'           ajout de la notion d'humidite sur les tuiles existantes
            Terrain -> gestionAquifere: new gestionAquifere(water, soil)
            activate gestionAquifere
                gestionAquifere -> Tuile: setHumitide()
                Tuile ->  gestionAquifere
                gestionAquifere -> Terrain
            deactivate gestionAquifere

        end loop
        Terrain -> Main
        deactivate Terrain
    end loop
end group

note left
    Un terrain avec le nombre d'île spécifié par
    l'utilisateur à la ligne de commande,
    généré selon le seed spécifié ou aléatoire.
end note

' Colorier les tuiles selon les proprietes adequates
group Colorier
    Terrain -> gestionColorier: new gestionColorier(heatmap)
    activate gestionColorier
        alt heatmap = humidity
            gestionColorier -> gestionColorier: colorierHumidite()
        else heatmap = altitude
            gestionColorier -> gestionColorier: colorierAltitude()
        else heatmap = ocean
            gestionColorier -> gestionColorier: colorierOcean()
        else heatmap = oceanNoir
            gestionColorier -> gestionColorier: colorierOceanNoir()
    deactivate gestionColorier
    gestionColorier -> Terrain
end group
Main -> User: File <x>.mesh
@enduml

@startuml
participant User
participant Main
participant Terrain
participant Seed
participant Ile
participant gestionAltitude
participant gestionAquifere
participant gestionColorier
participant Tuile
participant Biome
participant OceanBiome
participant PlageBiome
participant VegetationBiome
participant LagonBiome


User -> Main: main(string[] args)
group prépare les settings de base du mesh à produire
    Main -> Main: configure()
    Main -> Main: enrich()
end group
group process
    Main -> Seed: new Seed(seed)
    activate Seed
    Seed -> Main
    deactivate Seed

    loop archipelago times
        Main -> Terrain: new Terrain(shape)
        activate Terrain
        loop getPolygonsCount times
            Terrain -> Tuile: new Tuile()
            Tuile -> Terrain: Tuile
            Terrain -> gestionAltitude: new gestionAltitude(altitude)

            activate gestionAltitude
                gestionAltitude -> Tuile: setAltitude()
                Tuile ->  gestionAltitude
                gestionAltitude -> Terrain
            deactivate gestionAltitude

            Terrain -> gestionAquifere: new gestionAquifere(water, soil)
            activate gestionAquifere
                gestionAquifere -> Tuile: setHumitide()
                Tuile ->  gestionAquifere
                gestionAquifere -> Terrain
            deactivate gestionAquifere

        end loop
        Terrain -> Main
        deactivate Terrain
    end loop
end group

note left
    Un terrain avec le nombre d'île spécifié par
    l'utilisateur à la ligne de commande,
    généré selon le seed spécifié ou aléatoire.
end note

group Colorier
    Terrain -> gestionColorier: new gestionColorier(heatmap)
    activate gestionColorier
        alt heatmap = humidity
            gestionColorier -> gestionColorier: colorierHumidite()
        else heatmap = altitude
            gestionColorier -> gestionColorier: colorierAltitude()
        else heatmap = ocean
            gestionColorier -> gestionColorier: colorierOcean()
        else heatmap = oceanNoir
            gestionColorier -> gestionColorier: colorierOceanNoir()
    deactivate gestionColorier
    gestionColorier -> Terrain
end group
Main -> User: File <x>.mesh
@enduml

PlantUML version 1.2020.23beta3(Unknown compile time)
(GPL source distribution)
Java Runtime: Java(TM) SE Runtime Environment
JVM: Java HotSpot(TM) 64-Bit Server VM
Default Encoding: UTF-8
Language: en
Country: US
--></g></svg>